<svg viewBox="0 0 71.6665 220" fill="none" xmlns="http://www.w3.org/2000/svg">
<g id="Group 1">
<path id="Vector" d="M8.4624 135.927L8.41606 135.538C8.69372 136.152 8.96747 136.756 9.2389 137.356C9.52908 137.947 9.84465 138.521 10.1478 139.099C10.454 139.674 10.7602 140.249 11.0683 140.828C11.222 141.117 11.3758 141.407 11.5309 141.699C11.6887 141.988 11.8643 142.271 12.0306 142.561C12.7113 143.711 13.3696 144.912 14.0877 146.162C14.8406 147.393 15.5662 148.724 16.3806 150.135C17.0684 151.075 17.8283 152.113 18.5986 153.164C19.4023 154.191 20.2064 155.234 20.9762 156.192C21.7763 157.128 22.5279 157.989 23.1755 158.684C23.8383 159.367 24.4107 159.875 24.8056 160.144C25.6364 161.179 26.4076 162.003 27.102 162.756C27.7885 163.518 28.4629 164.152 29.1136 164.801C29.9427 165.606 30.7807 166.395 31.7689 167.29C31.4471 168.708 31.5233 170.108 32.6956 171.148C31.7493 171.319 31.3098 173.299 31.5429 173.339C31.7159 173.75 31.8581 174.167 31.9744 174.588C32.708 177.249 32.3876 180.139 32.0216 183.13C31.8393 184.789 31.633 189.295 31.3593 190.996C31.3245 191.242 31.2929 191.487 31.2661 191.736C31.3232 191.461 31.3798 191.186 31.436 190.911C31.6887 191.948 31.9343 192.887 32.0965 193.797C32.2325 193.637 32.364 193.609 32.5512 193.229L32.4607 193.693C32.8534 194.116 32.836 195.091 33.0018 195.549C32.7959 195.451 32.7549 195.812 32.7242 196.131L32.8601 196.004C32.7745 197.214 32.9417 198.618 32.9163 199.699C32.9163 199.849 32.8396 199.962 32.7687 200.031L32.9279 201.067C32.652 200.987 32.6854 201.926 32.5129 201.432C32.8387 202.208 32.639 202.995 32.9765 203.734C33.0175 206.378 33.2269 209.189 33.6879 211.922L33.7899 211.855C33.9727 212.812 34.5156 213.655 34.3355 214.818C34.7028 215.648 34.8967 216.829 35.4708 217.159C35.5497 218.118 35.8381 218.5 35.987 219.439C36.2714 219.197 36.3306 220.352 36.5513 219.889C36.9489 219.266 36.6105 219.232 36.9315 218.703L36.8361 218.718C37.2636 216.25 37.5078 213.778 37.6402 211.275C37.3991 209.606 37.5965 207.795 37.5234 206.058C37.4209 204.189 37.2355 202.168 36.9993 200.564C36.9177 200.181 37.1557 199.905 37.2886 199.579C37.1606 198.105 37.2573 196.228 37.1018 194.565C37.1009 194.596 37.0956 194.627 37.092 194.647C37.0448 193.763 37.3367 193.101 37.2881 192.238C37.2075 192.243 37.2021 192.109 37.1598 192.044C37.5369 191.894 36.3744 186.964 36.591 186.659C36.5731 186.57 36.5571 186.477 36.5473 186.382C36.7163 184.561 37.4517 182.677 37.3853 181.114C37.2079 180.774 37.0519 180.392 36.8513 180.106C37.0136 179.83 36.6998 179.777 36.743 179.444C37.4999 178.598 37.183 178.102 36.9155 178.539C36.8134 177.843 36.8803 177.145 36.8544 176.527C36.7992 176.24 36.7412 175.955 36.6757 175.665C36.6124 175.42 36.7247 175.283 36.9039 175.159C36.7965 174.531 36.9833 174.716 37.0599 174.057C37.3247 173.898 36.6391 172.404 36.7193 172.218L36.7581 172.325C36.8045 171.564 37.3162 171.057 37.3394 170.313C37.3969 169.7 37.4178 169.069 37.4245 168.437C37.7009 168.323 38.3659 167.926 39.2521 167.179C40.0647 166.389 39.6644 166.644 39.7696 166.442C40.272 166.061 41.1581 165.249 41.1599 165.475C41.6605 164.726 42.2453 164.56 42.9286 163.742C43.5099 163.005 42.8261 163.732 43.2166 163.189C43.7153 162.696 44.2738 162.066 44.8221 161.475C45.3691 160.883 45.8963 160.32 46.2588 159.895C46.6461 159.66 47.6936 158.809 47.2554 159.697C45.8647 161.324 47.4881 158.829 46.1068 160.573C46.9947 160.073 44.8774 162.109 44.7927 162.579C45.3709 162.144 46.36 161.09 47.0803 160.121L46.8917 160.277C47.214 159.855 47.6999 159.223 48.2147 158.602C48.726 157.977 49.2319 157.335 49.6585 156.938C49.5872 157.225 49.9647 156.881 49.5105 157.519L50.4225 156.37C50.5063 156.199 50.5915 156.025 50.312 156.343C50.6681 155.747 51.1067 155.212 51.4691 154.818C51.5177 154.804 51.7972 154.379 52.1868 153.755C52.3798 153.443 52.6022 153.081 52.8389 152.697C53.072 152.31 53.2935 151.884 53.5253 151.469C53.9818 150.637 54.432 149.815 54.7614 149.215C55.0837 148.613 55.2664 148.22 55.2575 148.283C55.508 147.853 55.7046 147.599 55.8864 147.35C55.841 147.434 55.7947 147.52 55.7461 147.611C55.5308 148.016 55.2798 148.488 55.0137 148.988C54.7293 149.478 54.4289 149.997 54.1329 150.507C52.9793 152.569 51.7687 154.413 52.1618 153.835C52.4966 153.52 54.0585 150.955 55.4643 148.354C55.808 147.7 56.1508 147.047 56.4744 146.431C56.8011 145.819 57.1092 145.245 57.3485 144.726C57.8473 143.701 58.2222 142.983 58.3514 142.865C58.7062 142.171 59.1203 141.328 58.9211 141.432C59.534 140.268 58.9728 141.898 59.4769 141.101C59.468 141.073 59.3874 141.142 59.5179 140.873L60.0452 140.124C60.2173 139.638 60.4397 139.11 60.6875 138.56C60.9305 138.008 61.2233 137.443 61.4529 136.847C61.9387 135.667 62.4224 134.472 62.7027 133.432C62.5988 134.056 62.5579 134.802 62.1518 136.136L61.9989 136.335C61.961 136.532 61.5732 137.608 61.7011 137.628C62.2761 136.44 62.6795 135.38 63.0847 134.049C63.2131 133.824 63.3575 133.559 63.4654 133.386C63.4475 133.385 63.4266 133.4 63.4106 133.388C63.6571 132.996 63.6392 133.04 63.6335 133.215C63.6335 133.239 63.6335 133.267 63.6246 133.314C63.9469 132.993 64.3075 131.739 64.7207 130.299C64.9177 129.576 65.1602 128.816 65.3478 128.079C65.5332 127.34 65.7294 126.643 65.9411 126.076C66.0847 125.378 65.8984 125.994 66.0713 125.125C66.2759 124.543 66.4644 124.005 66.6458 123.488C66.8076 122.966 66.9449 122.46 67.0911 121.951C67.3786 120.934 67.6617 119.9 67.9862 118.648C68.0004 118.23 67.9871 118.001 67.9264 117.995C67.8738 117.99 67.7704 118.207 67.5774 118.675C67.7526 118.049 67.8507 117.409 67.9781 116.774C68.1127 118.602 68.9699 113.247 69.076 115.248C69.2605 114.697 69.4865 113.54 69.5721 112.443C69.4767 112.319 69.3229 112.126 69.4651 110.756C69.8048 108.863 69.7062 109.313 70.0063 107.743C70.1841 107.379 70.1801 107.965 70.2982 107.908C70.3526 106.677 70.4257 106.146 70.5465 105.633C70.6642 105.12 70.8006 104.623 70.8372 103.459C70.8478 102.73 70.8795 101.647 70.8782 100.737C70.8394 99.827 70.7494 99.0911 70.6295 99.0568C70.6071 97.1009 70.7872 97.0959 70.9901 97.2876V95.6905C71.0105 96.9818 71.0315 98.2897 71.0529 99.6086L71.0631 100.6L71.0133 101.595C70.9776 102.259 70.9424 102.925 70.9067 103.593C70.8693 104.26 70.8314 104.929 70.7935 105.599C70.7578 106.269 70.7222 106.939 70.6268 107.605C70.465 108.939 70.3031 110.273 70.1422 111.602C70.3914 110.162 70.6455 108.689 70.9036 107.197C71.1117 105.697 71.2361 104.168 71.3917 102.632C71.4567 101.863 71.5508 101.092 71.5833 100.32C71.6007 99.548 71.6181 98.7764 71.635 98.0062C71.6444 97.2346 71.6533 96.4652 71.6623 95.6994C71.6582 94.9337 71.6912 94.1683 71.6208 93.4154C71.5218 91.9066 71.4033 90.4187 71.2611 88.9683C71.2241 88.6059 71.1866 88.2457 71.1501 87.8878C71.1171 87.5294 71.0703 87.1754 71.0012 86.8269C70.8777 86.128 70.7484 85.4406 70.6134 84.7667C70.3433 83.4187 70.05 82.1247 69.7313 80.9012C69.5882 80.2861 69.3591 79.7044 69.1607 79.1347C68.9548 78.5664 68.743 78.0177 68.5255 77.4904C68.7109 77.2078 68.7399 76.3002 68.674 75.0896C68.641 74.4843 68.584 73.8036 68.5113 73.0887C68.4079 72.3813 68.2728 71.644 68.1373 70.9117C67.5819 67.9858 66.9285 65.1669 66.7591 65.0983C65.8836 62.9132 65.0305 60.6997 64.1938 58.458C63.9358 57.715 63.6072 56.996 63.2993 56.2659C62.9917 55.5362 62.6824 54.8034 62.3721 54.0675C61.7646 52.593 61.1526 51.1064 60.5352 49.6087C59.8621 48.1378 59.1837 46.6561 58.5008 45.1638C58.1652 44.4154 57.8282 43.6648 57.4899 42.9115C57.1502 42.1591 56.8324 41.3923 56.445 40.6582C55.7073 39.1708 54.9647 37.6735 54.2181 36.1673C53.7354 35.1854 53.2509 34.2007 52.7654 33.2129L52.2992 32.2648L52.0656 31.7888L51.9484 31.5503L51.89 31.4313C51.8721 31.3889 51.8093 31.4246 51.7714 31.4175C51.0685 31.4652 50.3642 31.5129 49.6595 31.5601C48.5821 31.6292 47.5021 31.6983 46.4194 31.7678C45.576 31.8173 44.7309 31.8672 43.8835 31.9171L43.5657 31.9354L43.4079 31.9443L43.3619 31.9452L43.181 31.9479L42.8302 31.9514H42.1794C42.2792 31.5949 42.3795 31.2369 42.4803 30.8776L42.4981 30.817L42.507 30.7867C42.5102 30.776 42.5106 30.7773 42.5231 30.7207L42.6363 30.2095L42.8632 29.1856C43.0148 28.5023 43.1672 27.8181 43.3192 27.1329C43.5064 26.2709 43.7239 25.2675 43.9767 24.1037C44.1015 23.521 44.2347 22.8984 44.3769 22.2329C44.5869 21.2228 44.8106 20.1481 45.0483 19.0044C43.7159 16.7569 42.2147 14.2251 40.6301 11.5524C39.7159 10.0173 38.7776 8.44205 37.8277 6.84717C36.4703 4.5827 35.0966 2.29023 33.7241 0C31.7562 3.18218 29.7913 6.35896 27.8826 9.44532C26.8302 11.1186 25.8086 12.7425 24.8471 14.2705C24.3648 15.0336 23.8977 15.7731 23.4492 16.4827C23.0012 17.1937 22.5622 17.8618 22.1784 18.5394C21.3899 19.8708 20.6883 21.0556 20.1021 22.0456C19.3907 23.2513 18.6829 24.4504 17.9652 25.6677C18.7776 24.3337 19.5903 22.9998 20.403 21.6658C19.7402 22.979 19.0925 24.2614 18.4578 25.5184C18.1449 26.1482 17.8186 26.7629 17.5257 27.3874C17.2444 28.0176 16.9658 28.6417 16.689 29.2613C15.5764 31.7294 14.5009 34.115 13.4431 36.4618C13.9571 35.7027 14.1559 35.6207 15.2774 33.7807L14.0293 36.0856C13.6887 37.2441 13.0161 39.1046 12.2699 40.9562C11.8986 41.8825 11.5251 42.8146 11.1841 43.665C10.8533 44.5191 10.5199 45.2764 10.3501 45.9045C10.3536 45.3067 9.6017 47.2012 8.94285 48.8763L9.31953 48.2576C8.70215 49.848 8.07588 51.5093 7.45054 53.1947C7.28519 53.6127 7.15366 54.0447 7.02307 54.4775L6.62456 55.7755C6.36114 56.642 6.09724 57.5081 5.83513 58.3692C4.7074 61.789 3.9862 65.2324 3.21462 68.1872C3.01539 69.015 2.76176 69.6118 2.63118 69.9791L1.69467 75.7729C1.60953 75.5291 1.29573 76.7098 1.1152 77.6169C0.949372 78.5267 0.833919 79.1485 0.9289 77.7426C0.807635 79.9522 0.556252 82.1519 0.310213 84.3272C0.156432 86.5122 0.0686232 88.6799 0.0868968 90.7766C-0.206371 98.2557 0.227744 106.018 1.61712 113.683C2.99403 121.347 5.32216 128.893 8.46329 135.926L8.4624 135.927ZM4.61697 98.1179C4.60006 98.2596 4.54341 98.2708 4.46806 98.2356C4.45869 97.9851 4.45157 97.7346 4.44665 97.4836C4.62761 97.6574 4.81349 97.8389 4.92983 97.9681C4.91156 98.1464 4.97753 98.5449 4.65881 98.577C4.2991 98.2338 5.04439 98.4121 4.61735 98.1175L4.61697 98.1179ZM31.4989 165.534L31.4899 165.662C29.2305 163.178 27.0963 160.57 25.0958 157.862C24.5925 157.188 24.1196 156.49 23.6293 155.806L22.8996 154.776L22.2051 153.72L20.8184 151.609L19.5092 149.447C16.0422 143.668 13.1043 137.555 10.8221 131.168C10.4308 130.105 10.0353 129.032 9.63641 127.95C9.44828 127.405 9.22319 126.869 9.06632 126.308C8.90097 125.751 8.73514 125.191 8.56885 124.63C8.24615 123.504 7.88911 122.38 7.59799 121.232C7.33499 120.078 7.07067 118.919 6.80589 117.756C6.67886 117.174 6.5322 116.595 6.4212 116.008L6.12699 114.239C5.92996 113.06 5.73251 111.881 5.53506 110.703C5.38531 109.518 5.27075 108.33 5.13299 107.149C5.06565 106.558 4.99837 105.969 4.93108 105.38C4.89941 105.086 4.85752 104.793 4.83348 104.498L4.78265 103.614C4.69798 101.963 4.55577 100.291 4.4822 98.6077C4.48576 98.6099 4.48979 98.613 4.49335 98.6153L4.48 98.5479C4.48 98.5479 4.48 98.5461 4.48 98.5453C4.69662 98.6696 5.11833 98.9313 5.20477 99.2411C5.08042 99.2914 5.11204 99.4345 4.9547 99.3409L5.19943 99.5758C5.2565 99.5744 5.31535 99.5736 5.25781 99.4898C5.43924 99.5219 5.52836 99.6641 5.57695 99.7969C5.52433 99.9168 7.29482 100.55 7.20215 100.575C7.29221 100.648 7.32205 100.728 7.35682 100.797C6.83353 100.478 5.57831 99.8361 5.79094 99.9734C5.86183 100.213 8.30982 101.269 8.27285 101.549C8.41684 101.658 8.60095 101.778 8.65043 101.653C8.84431 101.897 8.42396 101.781 8.51313 102.012C8.53005 102 8.54078 101.952 8.59068 102L8.64639 102.257C9.13674 102.411 9.5031 103.055 10.0509 103.174C9.85214 103.187 9.57086 103.267 9.24591 103.157V103.07C9.18617 103.071 8.95662 102.935 8.88039 103.038C9.05778 103.298 9.27131 103.447 9.59668 103.557C9.61987 103.621 9.65019 103.692 9.66265 103.748C9.67244 103.735 9.67778 103.721 9.69118 103.707C9.71972 103.835 9.70322 103.838 9.64217 103.851C9.6328 103.855 9.62123 103.859 9.60652 103.859C9.51201 104.267 10.6705 104.444 10.97 104.948C11.1291 105.013 11.0226 104.91 11.2241 104.986C11.562 105.463 11.7875 105.802 12.1851 106.249C12.4334 106.247 12.4859 106.208 12.4191 105.932L12.7275 106.26C12.1409 106.326 13.1037 107.11 12.4855 107.149C12.5225 107.308 12.7146 107.496 12.9509 107.604C13.0396 107.537 13.1813 107.43 13.422 107.633C13.6654 108.025 13.619 107.917 13.8085 108.257C13.784 108.419 13.6467 108.376 13.586 108.472C14.1303 108.694 13.7639 109.019 14.1851 109.339C14.4651 109.52 14.9759 109.927 15.1461 109.75C15.4805 110.045 15.3645 110.183 15.2019 110.307L15.4613 110.561C14.552 109.822 13.665 108.962 12.7997 108.104C14.284 110.444 16.1968 113.018 18.9047 112.97C18.4656 113.837 20.1452 115.823 20.3351 115.678C20.8539 115.888 21.3581 116.126 21.8502 116.388C24.9601 118.043 27.619 120.697 30.3482 123.469C30.4178 123.537 30.4922 123.611 30.572 123.69C30.6121 123.729 30.6536 123.769 30.696 123.81C30.7708 123.879 30.848 123.949 30.9273 124.021C31.2647 124.325 31.636 124.66 32.0359 125.02C32.4585 125.397 32.9117 125.801 33.3883 126.226C33.473 126.752 33.5715 127.277 33.6856 127.799L33.7876 127.748C33.9703 128.485 34.5133 129.133 34.3332 130.028C34.59 130.474 34.7642 131.048 35.0402 131.443C34.594 131.484 34.1563 131.553 33.7435 131.634C33.2737 131.766 32.8213 131.857 32.4214 132.036C32.0479 132.223 31.6935 132.043 31.3147 132.047C30.9469 132.223 30.5377 132.361 30.1454 132.579C29.9462 132.68 29.7434 132.784 29.5379 132.888C29.3355 132.997 29.1412 133.127 28.9411 133.25C28.1374 133.735 27.405 134.376 26.8162 135.055C26.8394 135.03 26.8657 135.011 26.8848 134.999C26.5786 135.364 26.2447 135.621 25.9381 135.911C25.6484 136.211 25.3167 136.492 25.1028 136.919C25.1732 136.958 25.1019 137.085 25.1015 137.167C24.8942 137.129 24.3241 138.449 24.1337 139.831C23.9207 141.219 24.1021 142.576 23.9915 142.724C24.0049 142.817 24.016 142.913 24.0219 143.01C23.9724 143.479 23.922 143.957 23.8716 144.438C23.8601 144.92 23.7932 145.422 23.8346 145.909C23.8458 146.153 23.8609 146.399 23.8814 146.642C23.914 146.88 23.9626 147.114 24.0125 147.345C24.1016 147.812 24.2822 148.233 24.4845 148.615C24.7952 148.879 25.1709 149.14 25.4897 149.294C25.5048 149.635 25.8004 149.505 25.9724 149.807C25.9292 150.388 26.0763 150.757 26.2238 150.879C26.3661 151.009 26.4828 150.921 26.4284 150.66C26.9856 151.151 27.4768 151.7 28.0055 152.089C28.2823 152.227 28.5537 152.362 28.8359 152.481C29.0877 152.562 29.147 152.729 29.167 152.951C29.7906 153.204 29.5259 153.264 30.1312 153.645C30.1508 153.803 30.6015 153.909 31.0686 153.929C31.2969 153.941 31.5282 153.955 31.7118 153.965C31.8977 153.964 32.0341 153.971 32.076 154.003L31.9561 154.011C32.7022 154.27 33.1515 154.862 33.9748 154.978C34.1233 155.005 34.2739 155.025 34.425 155.042C34.376 155.174 34.3805 155.342 34.4099 155.492L34.4549 155.449C34.4995 155.638 34.5699 156.018 34.389 156.224C34.2704 156.175 34.1808 156.265 34.1518 156.126L34.1295 156.387C34.167 156.42 34.2058 156.454 34.2329 156.379C34.3252 156.502 34.2735 156.625 34.2035 156.72C34.0778 156.749 34.7321 158.11 34.6533 158.068C34.6551 158.157 34.6136 158.214 34.5833 158.27C34.4905 157.802 34.1745 156.741 34.2062 156.935C34.068 157.096 34.8351 159.067 34.5967 159.185C34.606 159.324 34.6328 159.492 34.7602 159.46C34.6983 159.695 34.5169 159.389 34.3974 159.557C34.4175 159.56 34.4612 159.543 34.4567 159.597L34.2953 159.758C34.4932 160.124 34.236 160.661 34.4977 161.044C34.3595 160.933 34.117 160.806 33.9922 160.56L34.0591 160.517C34.0198 160.481 33.9757 160.279 33.8482 160.284C33.7635 160.518 33.7867 160.719 33.912 160.965C33.8776 161.011 33.8433 161.064 33.8081 161.1C33.825 161.099 33.8388 161.095 33.858 161.096C33.7787 161.177 33.7657 161.168 33.7162 161.139C33.7069 161.135 33.6966 161.13 33.6873 161.122C33.3142 161.269 33.924 162.042 33.7305 162.469C33.7836 162.596 33.7943 162.481 33.8656 162.638C33.7177 163.076 33.6035 163.377 33.5171 163.834C33.678 163.98 33.7422 163.991 33.9102 163.815L33.8576 164.16C33.4292 163.846 33.4488 164.805 33.0209 164.459C32.9228 164.56 32.9028 164.766 32.9723 164.96C33.0802 164.98 33.2531 165.01 33.2527 165.253C33.1096 165.591 33.1618 165.511 33.024 165.791C32.8841 165.857 32.8288 165.754 32.7165 165.766C32.8961 166.199 32.4116 166.143 32.4383 166.551C32.4446 166.589 32.4504 166.635 32.4566 166.682C32.4245 166.647 32.3938 166.614 32.3612 166.578C32.3929 166.093 32.4405 165.604 32.4923 165.119C32.3429 165.483 32.1972 165.86 32.0675 166.241C31.891 166.034 31.7037 165.802 31.4992 165.532L31.4989 165.534ZM41.114 98.3145C41.9029 97.3187 42.6068 96.4031 43.3373 95.5749C43.1024 95.595 42.9923 95.5165 42.5225 95.6677L43.0066 95.3775C43.1417 94.7499 44.0479 94.0082 44.3617 93.5263C44.404 93.7603 44.762 93.5116 45.0744 93.2883L44.8711 93.282C46.0363 92.411 47.2171 91.196 48.2254 90.3785C48.3635 90.2617 48.5169 90.2332 48.6252 90.2345L49.4739 89.3105C49.5786 89.5828 50.4193 88.8304 50.0765 89.3452C50.5785 88.4956 51.4294 88.0388 51.8907 87.2083C54.2902 85.1303 56.7359 82.7928 58.9468 80.3252L58.8193 80.2989C59.5797 79.4186 60.0032 78.3506 61.1866 77.5879C61.7117 76.6643 62.6705 75.6017 62.6037 74.9068C63.0534 74.4713 63.3084 74.1196 63.5696 73.7545C63.595 73.8735 63.6204 73.9948 63.6454 74.112C63.6784 74.3447 63.7104 74.5738 63.7425 74.8002C63.8656 75.7069 63.9659 76.5702 64.0666 77.4297C64.1669 78.2891 64.2672 79.1436 64.3907 80.0328C64.4473 80.4781 64.5306 80.9292 64.585 81.3995C64.6331 81.8706 64.6889 82.3551 64.7553 82.8588C64.9296 84.2589 65.1061 85.675 65.2835 87.1019C65.3931 87.8128 65.4346 88.5322 65.4837 89.253C65.5358 89.9734 65.588 90.6954 65.6405 91.4189C65.7511 92.5092 65.8144 93.6031 65.8541 94.6982C63.2086 96.3947 60.6692 98.2236 58.1712 100.16C56.6731 101.738 54.7528 103.099 53.0808 104.603C51.2965 106.241 49.4137 108.07 47.9784 109.589C47.6522 109.971 47.2256 110.019 46.8168 110.19C45.4395 111.518 43.5192 113.01 41.9725 114.517C42.0041 114.491 42.0376 114.47 42.0594 114.456C41.2147 115.23 40.3714 115.559 39.5485 116.316C39.6047 116.374 39.4754 116.49 39.4384 116.576C39.2431 116.495 38.1181 117.698 36.9841 118.935C36.9882 118.704 37.1754 118.518 37.2886 118.304C37.1607 117.17 37.2574 115.726 37.1018 114.446C37.1009 114.47 37.0956 114.493 37.0921 114.509C37.0448 113.829 37.3368 113.32 37.2882 112.655C37.2075 112.659 37.2022 112.556 37.1598 112.506C37.5369 112.39 36.3744 108.597 36.591 108.362C36.5732 108.293 36.5571 108.222 36.5474 108.149C36.7163 106.748 37.4518 105.298 37.3854 104.095C37.208 103.834 37.0519 103.54 36.8514 103.32C37.0137 103.108 36.6998 103.067 36.7431 102.81C37.4999 102.16 37.183 101.778 36.9155 102.114C36.8812 101.935 36.8692 101.757 36.8629 101.581C37.6786 100.938 38.4845 100.304 39.2427 99.7067C40.0344 99.1286 40.7422 98.627 41.241 98.3088C41.4875 98.1417 41.7327 97.9754 41.981 97.8069C41.6921 97.9766 41.4033 98.1462 41.1144 98.3159L41.114 98.3145ZM36.7524 84.7122C36.7903 84.6747 36.8264 84.6257 36.8616 84.574C36.978 84.5624 37.0938 84.5504 37.2102 84.537C37.0725 84.7697 36.9115 85.0148 36.7314 85.2332C36.64 85.0995 36.7813 84.8575 36.7524 84.7122ZM35.2306 155.092C35.2181 155.219 35.2038 155.341 35.1878 155.43C35.0399 155.508 34.7773 155.745 34.5473 155.572C34.5789 155.189 34.9217 155.719 34.8723 155.32C34.6405 155.437 34.6806 155.23 34.6481 155.063C34.841 155.079 35.0349 155.09 35.2306 155.092ZM32.3244 167.79C32.3279 167.793 32.3315 167.796 32.3346 167.799L32.3235 167.915C32.3226 167.874 32.3248 167.831 32.3244 167.789V167.79ZM37.4112 166.4C37.4112 166.387 37.4112 166.374 37.4112 166.362C37.4544 166.291 37.4789 166.241 37.4758 166.22C37.4553 166.247 37.4339 166.275 37.4107 166.306C37.4107 166.277 37.4102 166.249 37.4098 166.221C37.4468 166.205 37.4727 166.201 37.4758 166.221C37.5271 166.154 37.5676 166.099 37.5966 166.058L37.9746 165.776C37.8538 165.934 37.6483 166.159 37.4116 166.4L37.4112 166.4ZM65.8184 104.42C65.7863 105.132 65.7685 105.842 65.7257 106.546C65.6539 107.248 65.5826 107.946 65.5117 108.64C65.44 109.333 65.3691 110.022 65.2987 110.706C65.2242 111.389 65.1739 112.071 65.0446 112.736C64.8186 114.068 64.5966 115.378 64.3796 116.66C64.6354 116.811 64.6884 114.387 65.0709 114.326C64.0698 120.402 62.1749 126.329 59.9475 132.077C59.4586 133.082 58.8189 134.29 58.5474 134.725C57.7161 136.506 58.2376 135.855 57.6025 137.149L57.2926 137.221C56.9418 138.216 56.5545 138.883 56.164 139.529C55.7807 140.178 55.3238 140.77 54.9191 141.672C54.9596 141.811 54.6351 142.456 54.3017 143.073C54.1697 143.021 53.9464 143.514 53.6772 143.962C53.4186 144.416 53.1717 144.858 53.0924 144.753L53.0995 144.781C52.8815 145.143 52.7442 145.411 52.4438 145.833C52.3586 146.015 52.1117 146.59 51.744 147.34C51.3607 148.084 50.8802 149.017 50.3997 149.949C50.1657 150.422 49.9089 150.881 49.6584 151.313C49.4115 151.748 49.1774 152.16 48.9702 152.526C48.5521 153.258 48.2525 153.819 48.1415 153.993L47.8728 154.27C47.1872 155.174 47.0464 155.681 47.489 155.183L46.622 156.287L46.7062 156.147C46.4241 156.517 46.1259 156.874 45.8223 157.226C45.6396 157.409 45.3588 157.554 45.5215 157.176C45.0882 157.839 44.5658 158.561 44.018 159.129C44.7878 158.341 45.6516 157.457 46.5249 156.564C47.3816 155.648 48.2481 154.722 49.0411 153.874C48.5592 154.701 47.382 155.962 46.7834 156.801C45.8705 157.646 44.1561 159.499 42.744 160.857C42.4726 161.19 42.4931 161.612 41.7202 162.228C41.2415 162.429 40.9709 163.038 40.2961 163.511C40.8706 162.771 41.5236 162.139 42.1847 161.464C41.891 161.412 40.4966 163.025 39.9145 163.492C39.7197 163.791 38.3838 165.017 37.5864 165.826C37.6626 165.637 37.5752 165.662 37.4054 165.784C37.405 165.713 37.4036 165.64 37.4032 165.569C37.6122 165.3 37.6604 165.213 37.4353 165.45C37.4723 165.432 37.4567 165.471 37.4028 165.552C37.4005 165.04 37.405 164.542 37.4277 164.064C37.1505 164.045 37.4892 164.487 37.1219 164.509C37.1701 163.378 37.5142 162.238 37.5606 161.097C37.635 160.891 37.7745 160.64 37.8628 160.546C37.9662 160.181 37.7304 160.33 37.7661 160.063L38.0166 160.027C37.8115 159.637 38.2943 159.457 38.1904 159.089C38.0897 159.07 38.0763 158.935 38.0843 158.805C38.3495 158.799 38.0656 158.403 38.3081 158.422L38.2881 158.418C38.2925 158.339 38.2751 158.284 38.321 158.187C38.2279 158.038 37.5004 156.637 37.3877 156.486L37.4313 156.415C37.4233 156.205 37.2263 156.116 37.1786 156.238L37.1933 155.979L37.2116 156.009L37.2268 155.752C37.25 155.705 37.3739 155.651 37.4902 155.724C37.3975 155.578 37.3476 155.415 37.3948 155.27C37.2308 155.674 36.9994 156.178 36.7311 156.601C36.6397 156.427 36.781 156.113 36.752 155.924C36.9205 155.707 37.0645 155.272 37.1826 154.919C37.2802 154.901 37.3779 154.884 37.4746 154.865C38.63 154.599 39.706 154.164 40.6697 153.709C40.5596 153.454 40.2756 153.97 40.092 153.651C41.1983 153.165 42.4576 152.744 43.4106 151.867C43.6379 151.771 43.9214 151.647 44.0618 151.63C44.4211 151.389 44.13 151.359 44.36 151.157L44.5784 151.288C44.7122 150.817 45.2051 150.936 45.387 150.525C45.317 150.447 45.4035 150.317 45.4936 150.194C45.7196 150.334 45.7263 149.782 45.9197 149.93L45.905 149.916C45.9576 149.838 45.9772 149.772 46.0757 149.697C46.0855 149.599 46.1457 149.1 46.1416 148.602C46.1457 148.355 46.1448 148.114 46.1399 147.922C46.1265 147.727 46.1069 147.581 46.0957 147.532L46.1639 147.474C46.2374 147.251 46.085 147.094 45.9945 147.202L46.1046 146.943L46.1108 146.979L46.2196 146.72C46.2597 146.679 46.3903 146.656 46.4817 146.769C46.4358 146.585 46.4331 146.397 46.5192 146.253C46.2646 146.652 45.8443 147.091 45.4427 147.406C45.4213 147.202 45.6665 146.944 45.7066 146.747C45.9673 146.586 46.2143 146.139 46.4345 145.786C46.4372 145.697 46.1742 145.582 46.3306 145.418C46.5468 145.363 46.3578 145.202 46.5281 145.067C46.6047 145.269 46.5347 145.444 46.4835 145.627C46.7353 145.647 46.7215 145.199 46.8138 145.06C46.7487 144.978 46.886 144.62 46.8459 144.381C46.9925 144.463 47.0157 144.363 47.0504 144.248C47.0335 144.218 47.0161 144.186 46.9978 144.153C47.0165 144.185 47.0344 144.215 47.0513 144.245C47.0696 144.185 47.0914 144.121 47.136 144.076C47.1726 143.917 47.0847 143.809 46.9996 143.87C46.9452 143.856 46.9073 143.882 46.8766 143.921C46.8516 143.873 46.8271 143.825 46.8021 143.776C46.6292 143.438 46.4656 143.132 46.458 143.208C46.433 143.255 46.3961 143.258 46.3568 143.247C46.3417 143.227 46.3198 143.217 46.2859 143.223C46.2333 143.202 46.1839 143.188 46.1598 143.252L46.2169 143.309C46.1714 143.621 45.8567 143.49 45.5278 143.367C45.1756 143.234 44.811 143.121 44.7553 143.456C45.0695 143.175 45.0588 143.559 45.0776 143.87C44.9733 143.893 44.8195 144.018 44.7268 144.223C44.7223 144.409 44.8195 144.344 44.8899 144.388C44.807 144.484 44.7214 144.671 44.569 144.622C44.7335 144.794 44.4157 144.83 44.454 145.008C44.5164 145.174 44.5356 145.013 44.6083 145.137C44.5392 145.357 44.4282 145.661 44.3493 145.827C44.1884 145.858 43.8862 145.979 43.703 145.77C43.8144 145.463 44.0311 145.996 44.0694 145.649C43.7056 145.704 44.0556 145.329 43.8211 145.212C43.6455 145.282 43.5915 145.484 43.5884 145.669L43.6406 145.646C43.6553 145.813 43.6085 146.138 43.378 146.236C43.28 146.159 43.1712 146.197 43.1824 146.081L43.0892 146.271C43.115 146.309 43.1418 146.349 43.1881 146.301C43.2398 146.429 43.1569 146.506 43.066 146.551C43.0107 146.54 43.0053 146.839 43.0094 147.155C43.0209 147.473 42.9951 147.785 42.9688 147.75C42.9309 147.816 42.8707 147.836 42.8203 147.86C42.8667 147.722 42.9193 147.517 42.9483 147.313C42.9973 146.944 43.0222 146.611 42.9968 146.71C42.8966 146.736 42.8828 147.2 42.7793 147.649C42.7281 147.872 42.6715 148.099 42.6117 148.267C42.544 148.43 42.4677 148.529 42.4062 148.515C42.3434 148.614 42.2787 148.745 42.3969 148.8C42.2275 148.923 42.239 148.605 42.0599 148.644C42.0741 148.659 42.1169 148.674 42.087 148.707L41.8811 148.714C41.8401 149.074 41.3534 149.23 41.3146 149.636C41.2901 149.478 41.1867 149.227 41.2254 148.998L41.2976 149.018C41.2878 148.971 41.3631 148.822 41.2646 148.741C41.0774 148.818 40.998 148.95 40.9508 149.176C40.9 149.176 40.8456 149.179 40.8006 149.172C40.8126 149.183 40.8247 149.191 40.8376 149.205C40.736 149.19 40.7329 149.177 40.7146 149.125C40.7105 149.117 40.7061 149.107 40.7043 149.096C40.37 148.891 40.3513 149.755 39.9452 149.791C39.8989 149.892 39.9759 149.847 39.9207 149.978C39.5704 150.074 39.2967 150.068 38.9682 150.179C38.9543 150.376 38.974 150.439 39.1741 150.513C39.0894 150.547 39.0038 150.577 38.9133 150.597C38.9227 150.118 38.2938 150.44 38.3361 149.946C38.2291 149.888 38.0945 149.931 38.0017 150.054C38.0325 150.158 38.0842 150.333 37.9175 150.389C37.638 150.339 37.7103 150.367 37.4794 150.306C37.3911 150.189 37.4397 150.112 37.3951 150.009C37.1785 150.286 37.0639 149.8 36.821 149.891C36.6725 149.973 36.3614 150.074 36.3939 150.305C36.1617 150.327 36.1358 150.15 36.1261 149.949H35.9464C36.0873 149.921 36.2313 149.902 36.3779 149.889C36.5228 149.865 36.6686 149.84 36.8156 149.815C37.1183 149.791 37.4076 149.701 37.716 149.654C36.9342 149.52 36.2268 149.272 35.6326 149.276C35.3277 149.247 35.046 149.338 34.7572 149.471C34.6128 149.544 34.4648 149.663 34.3133 149.793C34.1626 149.917 34.0057 150.078 33.8381 150.278C33.8492 150.039 33.7842 149.828 33.6932 149.637C33.604 149.436 33.4868 149.263 33.3692 149.132C33.1334 148.873 32.9101 148.702 32.8512 148.816C32.5655 148.914 32.2998 148.903 32.011 148.91C31.1293 148.857 30.3091 148.349 29.7484 147.621C29.1769 146.894 28.8774 145.955 28.8048 145.039C28.7388 144.538 28.6786 143.601 28.8627 142.71C29.0286 141.817 29.4511 141.031 29.7841 140.683C29.8772 140.58 29.9454 140.467 30.0488 140.372C29.8527 140.517 29.8759 140.529 29.6954 140.692C29.6954 140.061 29.8224 139.464 30.0551 138.928C29.8826 138.912 29.7693 138.836 29.4774 138.923C29.5648 138.863 29.6374 138.792 29.7332 138.741C29.6766 138.514 29.7662 138.277 29.8799 138.05C30.0141 137.843 30.1718 137.649 30.2356 137.477C30.3145 137.674 30.5311 137.55 30.7246 137.452L30.5734 137.395C31.2675 136.956 32.0471 136.364 32.7776 136.166C32.8735 136.124 32.9751 136.192 33.038 136.245C33.251 136.145 33.4615 136.008 33.6888 135.928C33.6901 136.208 34.2972 136.081 33.9995 136.301C34.1127 136.205 34.2335 136.126 34.3605 136.085C34.4876 136.048 34.6173 136.026 34.747 136.002C35.0069 135.942 35.2623 135.93 35.5293 135.775C37.3648 135.846 39.3087 136.463 41.0574 137.69L41.098 137.582C41.2535 137.689 41.4323 137.773 41.6052 137.868C41.7715 137.968 41.9454 138.068 42.116 138.182C42.2939 138.292 42.4401 138.436 42.5747 138.602C42.7049 138.771 42.8381 138.955 42.8921 139.196C43.0476 139.308 43.2041 139.445 43.3619 139.591C43.5197 139.737 43.6471 139.904 43.7952 140.053C44.0956 140.351 44.355 140.628 44.671 140.705C44.7428 140.916 44.8306 141.091 44.9002 141.253C44.9666 141.417 45.0379 141.565 45.1115 141.713C45.1837 141.862 45.2635 142.012 45.3326 142.182C45.3914 142.353 45.4476 142.543 45.4961 142.77C45.6321 142.646 45.7293 142.865 45.8166 143.066C45.9071 143.278 45.9682 143.401 46.0809 143.209C46.446 142.555 46.117 142.533 46.389 141.952L46.2963 141.978C46.4487 139.335 45.4061 136.543 43.4622 134.491C43.0717 134.218 42.708 133.91 42.3015 133.646C42.1036 133.507 41.9048 133.367 41.7055 133.227C41.4978 133.1 41.2888 132.971 41.0797 132.842C40.6701 132.57 40.2105 132.378 39.771 132.154C39.3119 131.975 38.8528 131.787 38.3781 131.679C37.9729 131.59 37.5615 131.509 37.1443 131.465C37.3854 130.085 37.5428 128.7 37.6386 127.304C37.5183 126.663 37.5071 125.995 37.5174 125.321C37.9676 124.965 38.4173 124.608 38.8613 124.256C39.1394 124.034 39.2032 123.993 39.3387 123.89C39.4622 123.798 39.5843 123.708 39.7047 123.618C40.6706 122.902 41.5429 122.272 42.1366 121.886C42.4009 121.704 42.6639 121.523 42.93 121.34C42.6213 121.526 42.3126 121.712 42.0038 121.898C42.8676 120.84 43.6397 119.868 44.4362 118.985C44.1897 119.015 44.0779 118.937 43.5808 119.112L44.0983 118.793C44.2642 118.14 45.2408 117.34 45.588 116.83C45.6233 117.07 46.007 116.8 46.3422 116.558L46.1296 116.559C47.3822 115.615 48.6646 114.316 49.7513 113.433C49.9002 113.307 50.0619 113.272 50.1752 113.269L51.0988 112.282C51.1977 112.56 52.1062 111.751 51.7277 112.295C52.2858 111.399 53.1937 110.895 53.7086 110.02C56.2993 107.783 58.9483 105.276 61.3571 102.644L61.2251 102.621C62.0547 101.683 62.5392 100.565 63.8069 99.7317C64.3921 98.7582 65.4366 97.6242 65.3937 96.9092C65.593 96.7184 65.7539 96.5446 65.8987 96.3779C65.9241 97.6269 65.9362 98.8749 65.9683 100.118C65.9598 101.562 65.8644 102.997 65.8185 104.422L65.8184 104.42ZM46.8667 143.931C46.7793 144.058 46.758 144.325 46.6349 144.288C46.6501 144.307 46.6626 144.322 46.6724 144.333C46.6532 144.363 46.6353 144.394 46.6126 144.423C46.5774 144.362 46.548 144.26 46.5382 144.157C46.5547 144.179 46.5698 144.2 46.5845 144.219C46.6799 144.143 46.6634 143.879 46.6603 143.729C46.5667 143.724 46.5484 143.771 46.5065 143.769C46.47 143.719 46.4445 143.654 46.4237 143.586C46.4205 143.566 46.416 143.546 46.4121 143.526L46.4326 143.487C46.4125 143.442 46.4028 143.392 46.3934 143.347C46.4001 143.313 46.4174 143.283 46.4535 143.259C46.4896 143.292 46.4629 143.365 46.4567 143.417C46.4687 143.303 46.6742 143.606 46.8672 143.931L46.8667 143.931ZM45.924 143.606C45.9334 143.526 45.9966 143.547 46.0827 143.62C46.0199 143.634 45.9596 143.634 45.924 143.606ZM7.63244 68.5384C7.86555 67.5564 8.10672 66.5405 8.35454 65.4979C8.48067 64.9769 8.60817 64.4491 8.73697 63.9156C8.80206 63.6486 8.86714 63.3807 8.93265 63.1105C9.00485 62.8427 9.09307 62.577 9.17334 62.3082C9.83528 60.1629 10.5221 57.9359 11.2184 55.6778C12.8204 51.2284 14.4443 46.643 16.2918 42.4508C16.2196 42.6073 16.1496 42.7584 16.1038 42.8582C16.5785 41.7385 17.0425 40.6973 17.4994 39.697C17.7334 39.1995 17.942 38.7016 18.1934 38.2287C18.4452 37.7562 18.6949 37.2886 18.944 36.8219C19.9416 34.956 20.9311 33.1053 21.9679 30.9675C21.8859 30.9515 22.2095 30.2896 22.3312 29.9494C22.6102 29.7181 24.8046 25.6373 27.3645 20.7341C28.7436 18.3066 30.2324 15.6861 31.6169 13.2492C31.7899 12.9448 31.9615 12.643 32.1309 12.3448C32.2151 12.1964 32.2994 12.0488 32.3827 11.9022L32.4879 11.7007C32.6346 11.423 32.7768 11.1538 32.9132 10.8957C33.2136 10.3421 33.4878 9.83661 33.7231 9.40244C34.1938 10.1009 34.5401 10.6527 34.599 10.8297C34.7354 11.0196 34.8798 11.2265 35.0256 11.4466C35.8622 12.9096 36.7042 14.3814 37.5453 15.8528C37.9937 16.6506 38.4417 17.4477 38.8893 18.2437L39.5516 19.4316L39.795 19.9336L39.6742 20.3347L39.6448 20.4314L39.6278 20.4898L39.5984 20.6129L39.4798 21.1041C39.322 21.7584 39.1651 22.4101 39.0087 23.0587C38.6989 24.3562 38.3918 25.6417 38.0891 26.9094C37.9407 27.5442 37.7931 28.174 37.6469 28.7994C37.5747 29.1123 37.5029 29.4238 37.4316 29.7341C37.3175 30.2623 37.2043 30.7882 37.0911 31.3116C36.6395 33.4583 36.1969 35.5653 35.7636 37.6246C37.465 37.4998 39.1196 37.3786 40.7386 37.26C41.5578 37.1566 42.4025 37.05 43.2521 36.9431L43.8325 36.8677L44.1975 36.8084C44.4405 36.7687 44.6825 36.7295 44.9223 36.6903C45.882 36.5325 46.8038 36.3747 47.5914 36.2156C47.7853 36.2214 47.9587 36.2214 48.1183 36.2169C48.1745 36.2151 48.2284 36.2129 48.2801 36.2111C48.3095 36.2084 48.338 36.2062 48.3657 36.2035C48.4758 36.1893 48.5752 36.1594 48.6857 36.1246C48.7962 36.0899 48.9179 36.0506 49.0659 36.019C49.103 36.0118 49.1413 36.0047 49.1814 35.9967L49.2429 35.9869C49.2652 35.9815 49.2871 35.978 49.2924 36.0038C49.3325 36.0751 49.3749 36.1593 49.4172 36.2569C49.4644 36.5391 49.5095 36.8061 49.5509 37.0544C49.7194 37.5349 49.8942 37.994 50.0551 38.3987C50.38 39.2135 50.6724 39.8523 50.8957 40.2793C51.3415 41.1338 51.5099 41.1432 51.0927 40.0065C52.9764 43.3639 54.352 46.9668 55.769 50.0661C56.4902 51.4791 57.0465 52.9452 57.6839 54.4081C58.2219 55.6517 58.3847 56.3979 58.4569 57.0964C59.1152 58.6975 59.3332 59.2685 59.4678 59.8876C59.618 60.5019 59.7527 61.1433 60.2648 62.879C60.2679 63.1077 60.4667 63.754 60.7662 64.6107C60.9213 65.0377 61.0961 65.5196 61.2806 66.0291C61.3756 66.2832 61.4736 66.5439 61.5731 66.8087C61.6653 67.0752 61.746 67.3485 61.8343 67.6204C62.5278 69.7987 63.2522 71.9984 63.3414 72.5039L63.1555 71.9401C63.2045 72.1398 63.2504 72.3336 63.2959 72.5275C63.234 72.5507 63.1635 72.573 63.0788 72.5931L63.1546 72.6537C60.613 74.2383 58.1868 75.966 55.8048 77.8025C54.4279 79.2797 52.6382 80.5313 51.0915 81.9314C49.4423 83.4567 47.706 85.1644 46.3867 86.5867C46.088 86.9451 45.6811 86.9772 45.296 87.1278C44.0251 88.3675 42.2408 89.7461 40.8145 91.1533C40.8439 91.1301 40.8751 91.1101 40.8956 91.0976C40.1151 91.8179 39.3194 92.1072 38.5585 92.8124C38.6147 92.8708 38.4953 92.9782 38.4627 93.0607C38.3513 93.0103 37.9497 93.3776 37.4277 93.9228C37.4246 92.9038 37.3711 91.8879 37.4277 90.9742C37.1505 90.9594 37.4892 91.2996 37.1219 91.317C37.1701 90.4469 37.5142 89.5697 37.5606 88.6915C37.635 88.5333 37.7745 88.3394 37.8628 88.2672C37.9662 87.9868 37.7304 88.1014 37.7661 87.8963L38.0166 87.8687C37.8115 87.5687 38.2942 87.4297 38.1904 87.147C38.0897 87.1323 38.0763 87.0289 38.0843 86.9286C38.3495 86.9237 38.0656 86.6193 38.3081 86.634L38.2881 86.6313C38.2925 86.5707 38.2751 86.5274 38.321 86.4535C38.2279 86.3385 37.5005 85.2606 37.3877 85.1439L37.4313 85.0895C37.4233 84.9281 37.2263 84.8595 37.1786 84.9535L37.1933 84.7547L37.2116 84.7779L37.2267 84.5805C37.2499 84.5439 37.3738 84.5029 37.4901 84.5591C37.4768 84.5426 37.4661 84.5257 37.4545 84.5087C37.9118 84.4494 38.3674 84.3759 38.818 84.2867C40.7075 83.8588 42.4771 83.1607 44.0412 82.3923C43.9436 82.1324 43.378 82.7832 43.1801 82.4707L43.8776 82.1667C44.113 82.0696 44.3314 81.939 44.5619 81.8289C45.0117 81.5904 45.4952 81.3943 45.9326 81.1224C46.3738 80.8563 46.8173 80.5853 47.256 80.3022C47.6692 79.9893 48.0739 79.6594 48.467 79.3162C48.8067 79.1281 49.2017 78.8642 49.3893 78.8005C49.9216 78.369 49.5596 78.4167 49.9166 78.0748L50.152 78.1871C50.4663 77.5087 51.0243 77.5163 51.3649 76.9003C51.302 76.8107 51.4486 76.6065 51.5891 76.4064C51.8173 76.5428 51.9693 75.7521 52.1556 75.9112L52.1422 75.8947C52.2238 75.7695 52.2639 75.67 52.3977 75.5368C52.4164 75.465 52.4735 75.2466 52.5501 74.9542C52.6237 74.6622 52.6794 74.2806 52.7463 73.9129C52.8051 73.547 52.864 73.181 52.9107 72.8877C52.9375 72.5908 52.9442 72.3675 52.9433 72.2931L53.0284 72.1883C53.1528 71.8268 53.0222 71.6098 52.9018 71.7997L53.0743 71.3686L53.0734 71.4248L53.2446 70.9947C53.2972 70.9225 53.434 70.8623 53.5133 71.0259C53.4933 70.7415 53.5192 70.4424 53.631 70.199C53.319 70.8792 52.765 71.6481 52.2617 72.2436C52.2827 71.9254 52.6041 71.4582 52.6897 71.136C52.7645 71.0566 52.8488 70.9523 52.9335 70.8298C53.0083 70.704 53.0859 70.5601 53.1644 70.4076C53.3204 70.1027 53.4773 69.7627 53.6159 69.4622C53.6293 69.3182 53.3859 69.168 53.5602 68.8787C53.7858 68.7624 53.6088 68.5208 53.7951 68.2819C53.8517 68.6033 53.7697 68.897 53.6917 69.1987C53.9556 69.1996 53.9774 68.4762 54.0857 68.2413C54.0265 68.1143 54.203 67.5228 54.1807 67.1359C54.3251 67.2598 54.3514 67.0953 54.3902 66.9054C54.3723 66.8528 54.3536 66.7953 54.3345 66.7343C54.3545 66.7926 54.3733 66.8479 54.3911 66.9005C54.4111 66.8015 54.4352 66.6964 54.4815 66.6215C54.5234 66.3625 54.4383 66.1909 54.3514 66.2921C54.2974 66.2711 54.2577 66.3099 54.2252 66.3759C54.2025 66.2992 54.1798 66.2225 54.1571 66.1454C53.9944 65.5949 53.8415 65.0837 53.8312 65.2107C53.8045 65.2896 53.7674 65.2936 53.7287 65.2767C53.714 65.2433 53.693 65.2263 53.6592 65.2357C53.607 65.2 53.558 65.1755 53.5312 65.2843L53.5865 65.3801C53.5304 65.9034 53.2197 65.6926 52.8948 65.4844C52.5471 65.2597 52.1869 65.0533 52.1178 65.6511C52.4433 65.1496 52.4174 65.8285 52.4245 66.371C52.3184 66.4164 52.162 66.6447 52.0577 67.0155C52.0318 67.3441 52.1379 67.2202 52.2039 67.2919C52.1089 67.4671 52.0002 67.8059 51.8509 67.7367C51.9984 68.0193 51.6703 68.1214 51.6886 68.4334C51.7332 68.7169 51.7715 68.4308 51.8312 68.638C51.7234 69.0325 51.546 69.5776 51.4332 69.8812C51.2585 69.965 50.9148 70.248 50.7619 69.9213C50.9406 69.3525 51.0645 70.2476 51.1729 69.6271C50.7788 69.7996 51.221 69.0664 50.9994 68.8997C50.8015 69.0561 50.7021 69.4346 50.6611 69.7666L50.7204 69.715C50.7111 70.0145 50.5693 70.5904 50.2885 70.8244C50.2025 70.7148 50.0714 70.812 50.1164 70.6042L49.9595 70.9671C49.9778 71.0273 49.9956 71.0901 50.0603 70.9925C50.0821 71.2011 49.9693 71.3602 49.8556 71.4681C49.803 71.4699 49.6862 71.9874 49.5873 72.5192C49.5325 72.7817 49.4954 73.0545 49.438 73.2395C49.3818 73.4249 49.3417 73.5412 49.3332 73.5172C49.2619 73.638 49.1803 73.6924 49.1099 73.7499C49.1215 73.724 49.1318 73.7018 49.1443 73.6732C49.2406 73.4352 49.3885 73.1317 49.4643 72.8067C49.6426 72.1693 49.7879 71.5871 49.7242 71.765C49.6662 71.806 49.5855 72.0231 49.4915 72.3311C49.3934 72.6364 49.3051 73.047 49.1411 73.4218C48.9932 73.8043 48.8403 74.1894 48.7057 74.4809C48.5567 74.7622 48.4155 74.941 48.3424 74.9436C48.2203 75.1223 48.0848 75.3479 48.2167 75.3844C47.9474 75.6412 48.0887 75.149 47.8387 75.2841C47.8511 75.301 47.9015 75.3064 47.8485 75.3697L47.5744 75.4673C47.4915 75.7592 47.2253 75.9901 46.9922 76.2487C46.7457 76.4961 46.5322 76.7764 46.3972 77.0608C46.4337 76.8522 46.3883 76.5344 46.5447 76.176L46.6374 76.1738C46.6446 76.1078 46.8157 75.8533 46.7146 75.7753C46.415 75.9732 46.2443 76.2134 46.0749 76.5633C46.0005 76.5843 45.918 76.6128 45.8548 76.6226C45.8673 76.6338 45.881 76.64 45.8936 76.6547C45.75 76.6779 45.7509 76.6596 45.7483 76.5945C45.746 76.5843 45.7442 76.5718 45.7469 76.5571C45.3351 76.4212 44.921 77.6625 44.2613 77.8645C44.1436 78.0183 44.2853 77.9255 44.1414 78.1226C43.9907 78.189 43.8517 78.2505 43.7179 78.3093C43.5815 78.3628 43.4443 78.4025 43.3123 78.4511C43.0462 78.5442 42.7841 78.645 42.4796 78.7805C42.3776 79.031 42.3905 79.0983 42.6967 79.1081C42.5434 79.1847 42.3878 79.2565 42.2229 79.3091C42.4315 78.7341 41.1933 79.3501 41.4554 78.7497C41.2842 78.7229 41.0181 78.829 40.8023 79.0118C40.8202 79.121 40.855 79.3109 40.526 79.4237C40.0219 79.4549 40.1475 79.4642 39.7308 79.4705C39.5988 79.3702 39.7152 79.2681 39.663 79.1678C39.1607 79.5529 39.08 79.0452 38.5589 79.2106C38.2362 79.339 37.5792 79.5266 37.6015 79.7482C37.1286 79.807 37.1031 79.6301 37.1169 79.4255L36.7421 79.4553C37.0412 79.4041 37.3447 79.3599 37.6527 79.3225C37.9576 79.2699 38.2594 79.1879 38.5692 79.1304C39.1963 79.0381 39.7918 78.8108 40.4132 78.6557C38.9646 78.7974 37.4883 78.7332 36.1537 78.8197C35.4771 78.805 34.8339 78.9334 34.2063 79.0337C33.8934 79.0956 33.5809 79.2146 33.2751 79.3243C32.9702 79.4255 32.6667 79.5637 32.3613 79.7428C32.3426 79.4981 32.1679 79.2744 31.9316 79.055C31.6985 78.8166 31.4003 78.5977 31.1043 78.4208C30.8035 78.2594 30.5244 78.0726 30.3024 77.9674C30.0809 77.8609 29.92 77.8208 29.8865 77.8702C29.7488 77.8649 29.6079 77.864 29.4702 77.8497L29.0659 77.7771C28.7949 77.7249 28.5208 77.6657 28.2445 77.5997C26.5346 77.1045 24.9322 75.9767 23.7238 74.4737C22.5015 72.9746 21.6987 71.1017 21.3314 69.1725C21.0885 68.1143 20.8335 66.0901 21.1108 64.1071C21.1233 63.8579 21.1785 63.6145 21.2338 63.3738C21.2842 63.1331 21.335 62.8942 21.3845 62.6588C21.4874 62.1899 21.6702 61.7558 21.7928 61.3394C22.1209 60.5299 22.4405 59.844 22.7569 59.4062C22.929 59.1477 23.0601 58.8722 23.2615 58.6306C23.0828 58.8241 23.0123 58.9324 22.9401 59.0398C22.8657 59.1468 22.7908 59.2542 22.642 59.4682C22.9433 58.1688 23.4617 57.0273 24.1045 55.9994C23.8549 56.0662 23.7256 56.002 23.2749 56.306C23.4305 56.1599 23.5607 55.9949 23.7327 55.8661C23.7764 55.5291 24.0323 55.1088 24.314 54.6969C24.6322 54.3211 24.9781 53.9574 25.1613 53.6762C25.1787 53.8037 25.2807 53.7818 25.4336 53.7113C25.5901 53.6454 25.7898 53.5197 25.9748 53.4002L25.7524 53.3962C27.1172 52.4289 28.7892 51.3761 30.2512 50.9553C30.446 50.8737 30.6279 50.9308 30.7362 50.9691L31.4111 50.7137C31.6366 50.6263 31.863 50.5346 32.0989 50.4837C32.0444 50.7721 33.3073 50.5452 32.6645 50.818C32.9132 50.7031 33.1691 50.596 33.4325 50.5448C33.6968 50.5006 33.9634 50.4717 34.2291 50.4414C34.4947 50.4204 34.7595 50.3585 35.0234 50.3513C35.2868 50.3321 35.5493 50.2947 35.8137 50.2234C37.6631 50.321 39.5561 50.7253 41.3668 51.4603C43.1774 52.1922 44.9015 53.2504 46.4264 54.5716L46.4353 54.4294C46.7032 54.6625 46.9969 54.8636 47.2729 55.0846C47.5368 55.316 47.8087 55.5469 48.0806 55.7961C48.365 56.0363 48.5958 56.3305 48.825 56.6524C49.0461 56.9782 49.2921 57.3183 49.4276 57.7485C49.6469 57.9923 49.8734 58.2762 50.1025 58.5695C50.3312 58.8633 50.5055 59.1909 50.7101 59.4851C51.1282 60.0717 51.446 60.6097 51.791 60.8C51.9024 61.1754 52.0335 61.4874 52.1253 61.7793C52.2114 62.0722 52.3009 62.3361 52.3919 62.6013C52.4811 62.8665 52.5813 63.1322 52.6661 63.4299C52.7311 63.7299 52.7944 64.0611 52.8515 64.4543C52.9829 64.2439 53.0886 64.6245 53.1826 64.9669C53.283 65.3199 53.3373 65.5655 53.4519 65.2107C53.792 64.1173 53.471 64.07 53.7117 63.117L53.6208 63.1549C53.5842 58.7764 51.7291 54.327 48.5152 51.0454C47.9045 50.5765 47.3277 50.0541 46.6694 49.6164C46.3471 49.3899 46.0334 49.147 45.7031 48.9259C45.3634 48.7177 45.0229 48.5091 44.6809 48.2996L44.167 47.9863L43.6276 47.717L42.5431 47.1866C42.1728 47.031 41.7921 46.8999 41.4168 46.7618C41.0388 46.6298 40.6675 46.4818 40.2765 46.4047C39.8602 46.3125 39.4395 46.2188 39.0164 46.1252C38.5948 46.0294 38.157 46.0089 37.7273 45.9518C36.8671 45.8234 35.9969 45.8515 35.151 45.8515C34.9392 45.8466 34.7288 45.8591 34.5198 45.8859C34.3116 45.9077 34.1044 45.9295 33.8985 45.9514C33.4884 46.0036 33.0827 46.0268 32.6918 46.1088C32.3027 46.1957 31.9216 46.2804 31.5498 46.3637C31.3653 46.407 31.1834 46.4502 31.0037 46.4921C30.8285 46.5514 30.6561 46.6093 30.4858 46.6668C30.1658 46.7903 29.8742 46.8251 29.5841 46.8327C29.4388 46.8362 29.2943 46.8331 29.1477 46.8309C29.0033 46.8353 28.8593 46.8487 28.7099 46.8661C28.4019 46.9918 28.0833 47.122 27.7565 47.2557C27.5943 47.3238 27.4249 47.3818 27.2622 47.4598C27.1008 47.5405 26.9377 47.6221 26.7728 47.7041C26.4434 47.8681 26.1078 48.0353 25.7681 48.2046C25.4338 48.3825 25.1138 48.5973 24.7826 48.7966C24.1091 49.1799 23.4975 49.6725 22.8855 50.1494C22.5708 50.3772 22.3051 50.6607 22.027 50.9219C21.7551 51.1902 21.4791 51.4487 21.2304 51.7238C21.2683 51.6828 21.3093 51.6475 21.3392 51.627C21.074 51.9181 20.8234 52.1891 20.5671 52.4387C20.3193 52.6955 20.043 52.9121 19.8232 53.1769C19.5923 53.4323 19.3614 53.6895 19.1336 53.9628C19.0195 54.0996 18.9063 54.2405 18.794 54.3871C18.6941 54.5422 18.5965 54.704 18.4998 54.8734C18.572 54.9104 18.4512 55.1181 18.4267 55.2394C18.1891 55.242 17.1465 57.3334 16.6891 59.5907C16.1984 61.852 16.337 64.1399 16.226 64.3931C16.2358 64.5492 16.2443 64.711 16.2461 64.875C16.189 65.2686 16.2091 65.6649 16.1841 66.0647C16.1735 66.4636 16.1342 66.8679 16.1364 67.2704C16.1485 67.6747 16.1609 68.079 16.173 68.4806C16.1806 68.6825 16.1815 68.8863 16.1957 69.0873C16.2207 69.287 16.2452 69.4862 16.2697 69.6845C16.325 70.0844 16.3798 70.4806 16.4333 70.8711C16.514 71.2567 16.6187 71.6329 16.719 72.0047C16.9 72.758 17.2187 73.435 17.5392 74.0671C17.6443 74.1857 17.7527 74.3069 17.8614 74.4291C17.9804 74.5437 18.0995 74.6582 18.2167 74.7714C18.4521 74.9943 18.6821 75.2011 18.8982 75.3625C19.0119 75.8719 19.3315 75.7716 19.6453 76.2611C19.7139 76.6698 19.8209 77.0157 19.9355 77.2872C20.0469 77.5613 20.1989 77.7343 20.3063 77.8488C20.5314 78.0708 20.6554 77.9896 20.4971 77.6157C21.3748 78.4791 22.2284 79.3647 23.0976 80.0258C23.5371 80.2843 23.9681 80.5428 24.4165 80.78C24.8164 80.9512 24.9586 81.1687 25.0531 81.4361C26.0556 81.9211 25.6785 81.9135 26.7023 82.4974C26.738 82.5879 26.9345 82.69 27.2118 82.7934C27.4864 82.9027 27.8648 82.9561 28.2312 83.0297C28.5981 83.093 28.9671 83.1567 29.2635 83.2076C29.5644 83.2361 29.7887 83.2655 29.8627 83.3052L29.6692 83.2954C29.9897 83.3908 30.2758 83.5062 30.5482 83.6319C30.8197 83.7612 31.0773 83.8962 31.3439 83.9974C31.8734 84.2096 32.4132 84.4556 33.0827 84.5243C33.5499 84.5907 34.025 84.6322 34.5046 84.6509C34.5037 84.7583 34.4766 84.8666 34.3887 84.9429C34.2702 84.9058 34.1805 84.9745 34.1516 84.8675L34.1293 85.0685C34.1667 85.0939 34.2055 85.1202 34.2327 85.0623C34.3249 85.1572 34.2733 85.2522 34.2032 85.3248C34.0775 85.3467 34.7319 86.3942 34.653 86.3616C34.6548 86.4307 34.6133 86.4744 34.583 86.5168C34.4903 86.1566 34.1743 85.3404 34.2059 85.4898C34.0677 85.6137 34.8349 87.131 34.5964 87.2211C34.6058 87.3285 34.6325 87.4578 34.76 87.4328C34.6981 87.6142 34.5167 87.3784 34.3972 87.5077C34.4172 87.5108 34.461 87.497 34.4565 87.5384L34.2951 87.6623C34.493 87.944 34.2358 88.3568 34.4975 88.6519C34.3593 88.5663 34.1168 88.4692 33.992 88.2792L34.0588 88.2463C34.0196 88.2191 33.9755 88.0631 33.848 88.0675C33.7633 88.2476 33.7865 88.4018 33.9118 88.5917C33.8774 88.6269 33.8431 88.6674 33.8079 88.6951C33.8248 88.6942 33.8386 88.6915 33.8578 88.6919C33.7785 88.7539 33.7655 88.7472 33.716 88.7249C33.7067 88.7218 33.6964 88.7182 33.6871 88.712C33.314 88.8252 33.9238 89.4199 33.7303 89.7488C33.7834 89.846 33.7941 89.7582 33.8654 89.8785C33.7175 90.215 33.6033 90.4468 33.5169 90.7985C33.6778 90.9108 33.742 90.9198 33.91 90.7838L33.8574 91.0495C33.429 90.8079 33.4486 91.5456 33.0207 91.2795C32.9226 91.357 32.9026 91.5162 32.9721 91.6651C33.08 91.6802 33.2529 91.7034 33.2525 91.8906C33.1094 92.151 33.1615 92.089 33.0238 92.3047C32.8839 92.356 32.8286 92.2767 32.7163 92.2856C32.8959 92.6181 32.4114 92.5758 32.4381 92.8895C32.4796 93.0861 32.4961 93.4744 32.7421 93.4837C32.7315 93.736 32.5669 93.7463 32.3789 93.7244C32.361 93.7061 32.3436 93.6865 32.3258 93.6687C32.3316 93.0536 32.4047 92.417 32.4921 91.7877C32.2456 92.2499 32.0098 92.7371 31.8422 93.2252C31.8083 93.1963 31.7758 93.1624 31.7414 93.1347C31.318 92.9997 30.87 92.8147 30.4796 92.7394C30.3369 92.3988 30.0819 92.5927 29.8096 92.2963C29.5444 91.0576 28.8883 90.9038 29.1062 91.4507C28.4104 90.9769 27.8238 90.3738 27.2484 89.904C26.9529 89.7186 26.6573 89.5367 26.3529 89.3571C26.0894 89.2104 26.0395 89.0174 26.0462 88.7847C25.4079 88.3679 25.698 88.3742 25.1538 87.7952C25.1841 87.4702 23.3838 86.8038 23.2683 86.5957L23.3914 86.6514C22.7335 86.0135 22.6136 85.2277 21.9561 84.6215C20.215 82.838 18.0438 81.1968 16.3723 79.6113C16.1726 79.8048 16.7948 79.8997 16.5733 80.1934C15.5837 79.2623 14.7805 78.1016 13.7802 77.1633C13.6434 76.9444 13.5083 76.6404 13.4816 76.4996C13.2203 76.1331 13.1999 76.4287 12.9823 76.1906L13.1147 75.974C12.6271 75.8194 12.7821 75.3139 12.3823 75.1013C12.2986 75.1614 12.1684 75.0656 12.0556 74.9564C12.2246 74.7518 11.6803 74.6524 11.8573 74.4848L11.8408 74.4968C11.7725 74.4313 11.7106 74.4001 11.654 74.2896C11.4579 74.2415 9.71281 73.6803 9.50149 73.6451L9.46624 73.5563C9.27146 73.3963 9.06061 73.4739 9.13999 73.6062L8.9162 73.3905L8.95542 73.4003L8.733 73.1859C8.70535 73.1311 8.73881 72.9956 8.88144 72.9653C8.68886 72.9198 8.5079 72.828 8.40805 72.6773C8.66571 73.1213 8.96747 73.6932 9.1734 74.2299C8.9559 74.1608 8.76509 73.806 8.57566 73.678C8.48785 73.3678 8.16777 72.8891 7.92173 72.5133C7.84016 72.462 7.59589 72.6417 7.51966 72.4014C7.57537 72.1781 7.33153 72.2463 7.29409 72.0172C7.52097 72.0711 7.63998 72.241 7.79067 72.3863C7.92262 72.1812 7.51609 71.9281 7.43677 71.768C7.32844 71.7743 7.07706 71.4493 6.84259 71.3326C6.99685 71.2661 6.92506 71.181 6.8484 71.0763C6.83013 71.0731 6.8096 71.0691 6.79044 71.0656C6.81007 71.0683 6.82829 71.0709 6.84662 71.0741C6.83191 71.0535 6.81809 71.0326 6.80426 71.0112C6.80515 71.0068 6.80651 71.0023 6.80782 70.9979C7.03826 70.1644 7.36143 69.3914 7.6338 68.5383L7.63244 68.5384ZM54.0156 66.0716C53.9228 66.0654 53.9033 66.1465 53.8623 66.1456C53.8261 66.064 53.8025 65.9548 53.7834 65.8407C53.7807 65.8068 53.7771 65.7734 53.7736 65.7404L53.7954 65.6762C53.7767 65.6004 53.7687 65.5166 53.7606 65.4417C53.7687 65.386 53.7869 65.336 53.8239 65.295C53.8592 65.3503 53.8298 65.472 53.8222 65.558C53.8378 65.3695 54.0334 65.8718 54.2162 66.3951C54.1248 66.6064 54.0954 67.0477 53.9746 66.9973C53.9879 67.0263 53.9991 67.0495 54.0085 67.0669C53.9884 67.1177 53.971 67.169 53.9438 67.2189C53.9122 67.1208 53.8846 66.9528 53.8783 66.7802C53.8962 66.8208 53.9127 66.8587 53.9283 66.8939C54.0259 66.762 54.0143 66.3189 54.0161 66.072L54.0156 66.0716ZM53.2828 65.8857C53.2948 65.7484 53.3576 65.7832 53.4415 65.9045C53.3782 65.9303 53.3175 65.9316 53.2828 65.8857ZM6.6919 71.4433C6.69593 71.4433 6.69724 71.4428 6.70038 71.4428L6.74494 71.5515C6.72222 71.5484 6.69635 71.5413 6.6687 71.5324C6.6763 71.5021 6.68389 71.4732 6.6919 71.4433ZM4.61205 88.1314C4.64415 87.4913 4.67667 86.854 4.70835 86.2201C4.73778 85.5858 4.76228 84.9546 4.84652 84.3323C4.98156 83.0843 5.11487 81.8536 5.24593 80.6465C5.31012 80.0421 5.37342 79.4434 5.43626 78.852C5.46746 78.556 5.49867 78.2614 5.52987 77.9685C5.57799 77.6783 5.62569 77.3895 5.67298 77.1024C5.85749 75.9733 6.03761 74.8733 6.21186 73.8062C6.41958 73.873 6.25464 73.7357 6.42224 73.762C6.63708 73.9769 6.93977 74.2773 7.09711 74.4636C7.06994 74.6366 7.11094 75.0217 6.80337 75.0578C6.47843 74.7311 7.18225 74.8916 6.78913 74.6134C6.72091 75.0039 6.40936 74.404 6.1749 74.5395C6.18914 74.7548 6.42052 74.9598 6.64295 75.0984L6.63357 75.0307C6.83416 75.1474 7.22372 75.3948 7.28969 75.6935C7.16801 75.7443 7.18984 75.8824 7.04454 75.7942L7.26608 76.018C7.3209 76.0158 7.37708 76.014 7.32671 75.9338C7.49877 75.9618 7.57631 76.0982 7.61558 76.2262C7.55851 76.343 9.21889 76.9282 9.12889 76.9541C9.21135 77.0236 9.23544 77.0999 9.26482 77.1667C8.78122 76.8659 7.61469 76.2641 7.81078 76.3938C7.86518 76.6247 10.1514 77.609 10.1001 77.8809C10.2321 77.9843 10.4019 78.0975 10.4563 77.9754C10.6283 78.2085 10.2325 78.1024 10.3052 78.3253C10.3221 78.3133 10.3346 78.2664 10.38 78.3124L10.4192 78.5615C10.8801 78.702 11.1953 79.3207 11.7137 79.4267C11.522 79.4428 11.2483 79.5248 10.943 79.4241L10.9483 79.3394C10.8909 79.3412 10.6786 79.2137 10.5998 79.314C10.7553 79.5632 10.9519 79.7045 11.2573 79.8052C11.276 79.8671 11.3009 79.9349 11.3099 79.9897C11.3202 79.9764 11.326 79.963 11.3393 79.9491C11.3598 80.0726 11.3438 80.0753 11.284 80.0896C11.2747 80.0936 11.2635 80.0976 11.2497 80.098C11.1365 80.4952 12.2361 80.6477 12.4951 81.1317C12.6436 81.1919 12.5477 81.0934 12.7367 81.1638C13.034 81.6212 13.231 81.9457 13.5872 82.3723C13.8252 82.3669 13.8774 82.3277 13.8288 82.0615L14.106 82.374C13.54 82.448 14.4189 83.1915 13.8243 83.2396C13.8511 83.3934 14.0245 83.5722 14.2447 83.6729C14.3334 83.607 14.4751 83.5009 14.6944 83.6939C14.9057 84.0692 14.8674 83.9662 15.0297 84.2916C14.9976 84.4494 14.8679 84.4097 14.805 84.5034C15.314 84.7102 14.9445 85.0311 15.3309 85.3338C15.589 85.5049 16.0553 85.8914 16.2286 85.7162C16.5322 85.997 16.4136 86.1321 16.2509 86.2556L16.4854 86.4976C15.6555 85.7956 14.8536 84.9772 14.0721 84.1597C15.3634 86.4031 17.0528 88.8659 19.6497 88.7758C19.1808 89.6228 20.6794 91.5203 20.8688 91.3768C21.3543 91.572 21.8241 91.7944 22.2809 92.04C25.168 93.5938 27.5675 96.1226 30.0275 98.764C30.1759 98.9164 30.3515 99.0966 30.5481 99.2989L30.6235 99.3752L30.754 99.4995C30.8516 99.5918 30.952 99.6863 31.0545 99.783C31.2613 99.9774 31.477 100.18 31.7008 100.39C31.9174 100.592 32.1426 100.802 32.3721 101.016C32.4961 102.501 32.2732 104.054 32.0204 105.645C31.8381 106.922 31.6317 110.389 31.3581 111.698C31.3233 111.888 31.2917 112.076 31.2649 112.267C31.322 112.056 31.3786 111.844 31.4347 111.633C31.6875 112.43 31.9331 113.154 32.0953 113.854C32.2312 113.731 32.3627 113.709 32.5499 113.416L32.4595 113.774C32.8522 114.099 32.8348 114.85 33.0006 115.202C32.7947 115.126 32.7537 115.404 32.7229 115.649L32.8588 115.552C32.7732 116.483 32.9404 117.563 32.915 118.395C32.915 118.485 32.8682 118.557 32.8139 118.61C32.4822 118.27 32.1466 117.956 31.8016 117.685C31.351 117.538 30.8718 117.339 30.4595 117.254C30.2896 116.9 30.0351 117.096 29.7329 116.785C29.3812 115.5 28.6863 115.33 28.947 115.899C28.1915 115.397 27.5425 114.764 26.9126 114.269C26.5908 114.076 26.2703 113.884 25.9445 113.688C25.6601 113.532 25.5968 113.332 25.5897 113.092C24.8975 112.65 25.2015 112.661 24.5975 112.054C24.61 111.719 22.6884 110.999 22.5551 110.782L22.687 110.842C21.9618 110.171 21.7889 109.358 21.0654 108.72C19.139 106.847 16.772 105.114 14.9298 103.447C14.7328 103.643 15.3885 103.752 15.1745 104.052C14.0847 103.073 13.1758 101.86 12.0744 100.873C11.9184 100.645 11.7588 100.328 11.7223 100.183C11.4272 99.7999 11.4236 100.105 11.182 99.8551L11.3073 99.6336C10.7884 99.4656 10.9204 98.9458 10.4898 98.7189C10.4055 98.78 10.2642 98.6784 10.1399 98.5638C10.3043 98.3552 9.72977 98.2429 9.9045 98.073L9.88758 98.0851C9.81271 98.0159 9.74585 97.9825 9.67988 97.8676C9.47169 97.8145 7.61521 97.2043 7.39232 97.1642L7.35043 97.0719C7.13738 96.9034 6.92207 96.9796 7.01255 97.1182L6.76604 96.8918L6.80704 96.9025L6.56231 96.6769C6.53021 96.6194 6.5565 96.4803 6.70405 96.4518C6.4999 96.4014 6.30554 96.3034 6.19192 96.146C6.48791 96.6091 6.83736 97.2051 7.08429 97.7632C6.85296 97.6878 6.63231 97.3179 6.4268 97.1828C6.31627 96.861 5.95341 96.3609 5.67397 95.9682C5.58569 95.9138 5.34143 96.0952 5.24692 95.8456C5.29195 95.616 5.04099 95.682 4.98795 95.4444C5.22823 95.5041 5.36285 95.6815 5.52867 95.8344C5.65439 95.6249 5.2144 95.3566 5.12173 95.1899C5.00894 95.1943 4.72678 94.8542 4.47451 94.7298C4.63185 94.6639 4.55163 94.5747 4.46514 94.4651C4.45534 94.4633 4.4433 94.4606 4.43304 94.4588C4.43304 94.4588 4.43304 94.4579 4.43304 94.4575C4.4433 94.4592 4.45309 94.461 4.46288 94.4624C4.45262 94.4494 4.44283 94.4365 4.43256 94.4227C4.42722 93.6132 4.4223 92.8028 4.41696 91.9961C4.48205 90.7003 4.54713 89.4099 4.61132 88.1306L4.61205 88.1314Z" fill="var(--fill-0, #F8F6F2)"/>
<path id="Vector_2" d="M44.2743 64.1509C44.158 63.7689 44.072 63.4025 43.916 63.0798C43.7493 62.7802 43.9383 62.4811 43.9575 62.1629C43.6802 61.5598 43.3833 60.8725 42.9612 60.2324C42.5627 59.5793 42.0385 58.983 41.4755 58.5154C41.4952 58.5345 41.5108 58.5564 41.5197 58.5725C40.9358 58.0772 40.6665 57.471 39.9792 57.0921C39.9391 57.1621 39.8348 57.1046 39.7639 57.1109C39.8138 56.9125 38.7146 56.4761 37.5815 56.3607C36.4409 56.226 35.3488 56.4186 35.2307 56.3085C35.1558 56.3228 35.0782 56.3348 34.9998 56.3415C34.6253 56.2898 34.2407 56.2417 33.8458 56.1797C33.4539 56.1521 33.0434 56.0803 32.6431 56.0955C32.4417 56.0955 32.2398 56.0999 32.0396 56.1097C31.8426 56.1289 31.6491 56.1614 31.4583 56.1975C31.0732 56.2608 30.7255 56.4026 30.414 56.5715C30.2139 56.8555 30.0155 57.1849 29.912 57.4759C29.6187 57.463 29.7574 57.7519 29.5091 57.8833C28.9961 57.7897 28.6813 57.8963 28.5842 58.0184C28.4799 58.1365 28.5708 58.2515 28.7981 58.2265C28.4139 58.6919 27.9614 59.0801 27.6503 59.5112C27.5465 59.7412 27.4462 59.9676 27.361 60.2021C27.3053 60.4115 27.1524 60.4472 26.9433 60.4459C26.7566 60.9616 26.6764 60.7285 26.3541 61.2139C26.2034 61.2193 26.1343 61.5955 26.1401 61.9828C26.141 62.1714 26.1424 62.3639 26.1433 62.5155C26.1526 62.6684 26.1522 62.7798 26.1228 62.8128L26.1085 62.7143C25.891 63.3129 25.3142 63.6611 25.2153 64.3363C25.0343 65.2577 25.0971 66.2548 25.2946 67.202C25.5143 68.1488 25.8772 69.0269 26.2427 69.819C26.4949 69.7053 26.018 69.5016 26.3394 69.322C26.7263 70.2241 27.0196 71.2886 27.7337 72.078C27.8028 72.2728 27.8866 72.5246 27.8906 72.6521C28.0769 72.9619 28.1299 72.6913 28.2922 72.8852L28.1553 73.0987C28.5663 73.1812 28.4156 73.6555 28.7682 73.7923C28.8427 73.7205 28.9523 73.7896 29.0535 73.8654C28.9122 74.0905 29.3958 74.0562 29.2514 74.2514L29.2652 74.2363C29.3299 74.2808 29.3856 74.2946 29.444 74.3829C29.53 74.3838 29.9619 74.4039 30.3885 74.3687C30.6003 74.3557 30.8071 74.3379 30.9702 74.3196C31.136 74.2951 31.2599 74.2679 31.3023 74.2541L31.3469 74.3174C31.5301 74.3767 31.6709 74.218 31.5849 74.136L31.7958 74.2282L31.765 74.2367L31.9759 74.3281C32.008 74.3651 32.02 74.4935 31.9211 74.588C32.0775 74.5353 32.2326 74.5242 32.348 74.6031C32.0293 74.3651 31.6843 73.9817 31.4503 73.6091C31.6206 73.5756 31.8199 73.7994 31.9812 73.8266C32.1006 74.0687 32.455 74.2982 32.739 74.4992C32.8125 74.4987 32.9177 74.23 33.0456 74.382C33.0831 74.5955 33.2217 74.4029 33.3264 74.5687C33.1588 74.6512 33.0166 74.5844 32.8687 74.5407C32.8428 74.7899 33.2123 74.7658 33.3242 74.8532C33.3932 74.7863 33.6848 74.9129 33.8818 74.8679C33.8118 75.015 33.8934 75.0373 33.9879 75.0716C34.012 75.0551 34.0378 75.0373 34.0646 75.0195C34.0383 75.0382 34.0142 75.0556 33.9902 75.0725C34.0392 75.0903 34.0918 75.1113 34.1283 75.1559C34.2585 75.191 34.3476 75.1023 34.299 75.0177C34.3106 74.9633 34.2905 74.9258 34.2584 74.8951C34.2981 74.8701 34.3378 74.8447 34.3775 74.8198C34.6561 74.6437 34.9039 74.477 34.8419 74.4703C34.7996 74.4431 34.8009 74.4012 34.8121 74.3571C34.8206 74.3464 34.8246 74.3317 34.825 74.3147C34.8442 74.2555 34.8638 74.1989 34.8068 74.1725L34.7604 74.23C34.5086 74.1877 34.6173 73.8717 34.7154 73.5413C34.8228 73.1879 34.9093 72.8214 34.649 72.7698C34.8674 73.0809 34.567 73.0742 34.3218 73.0965C34.3049 72.9926 34.2094 72.8397 34.0517 72.7501C33.9064 72.7519 33.955 72.8468 33.9184 72.9181C33.8448 72.8388 33.7004 72.7594 33.7436 72.6061C33.6037 72.7751 33.5872 72.4604 33.4468 72.5045C33.3145 72.5718 33.4397 72.5861 33.339 72.6623C33.1683 72.6039 32.9329 72.5117 32.8063 72.4426C32.7912 72.2856 32.7167 71.9955 32.8919 71.8034C33.1241 71.8956 32.6935 72.139 32.9641 72.1573C32.9427 71.802 33.2146 72.126 33.318 71.888C33.2735 71.7186 33.1215 71.6776 32.9784 71.6852L32.9926 71.7351C32.8633 71.7569 32.6097 71.736 32.5504 71.5207C32.6186 71.4195 32.5981 71.3165 32.6873 71.3183L32.5473 71.2429C32.5152 71.271 32.4813 71.3 32.5148 71.341C32.4109 71.4012 32.357 71.3268 32.3303 71.2425C32.3441 71.1868 32.1079 71.2127 31.8534 71.2452C31.5975 71.284 31.3416 71.2933 31.3737 71.2652C31.3225 71.2363 31.3127 71.1819 31.2984 71.1373C31.4071 71.1659 31.5703 71.1935 31.7321 71.2015C32.0253 71.2145 32.287 71.2051 32.2108 71.1904C32.1983 71.099 31.8346 71.1249 31.4762 71.0763C31.2979 71.0522 31.1165 71.0232 30.9836 70.9849C30.8548 70.9399 30.7786 70.8824 30.7978 70.824C30.7206 70.7777 30.6172 70.7335 30.5566 70.8476C30.471 70.7063 30.7407 70.6814 30.7278 70.5227C30.7135 70.5369 30.6957 70.5784 30.6716 70.5543L30.6908 70.368C30.3868 70.3733 30.3123 69.9592 29.9593 69.9748C30.1033 69.9334 30.3342 69.813 30.5272 69.8188L30.5004 69.8848C30.5428 69.8705 30.6609 69.9182 30.7429 69.8206C30.7005 69.665 30.5998 69.612 30.4086 69.5999C30.4153 69.5558 30.4193 69.509 30.4313 69.4698C30.4197 69.4818 30.4099 69.4921 30.3969 69.5059C30.4228 69.4163 30.4358 69.4118 30.483 69.3895C30.491 69.3846 30.5004 69.3797 30.5102 69.3766C30.7339 69.0641 29.9775 69.1581 29.9891 68.8243C29.9035 68.7984 29.9343 68.8573 29.8224 68.8269C29.7818 68.5453 29.813 68.3273 29.751 68.0763C29.5692 68.0879 29.5072 68.1093 29.4149 68.2792C29.394 68.2141 29.3748 68.1486 29.3646 68.0795C29.8161 68.0313 29.5772 67.5766 30.0412 67.5557C30.1076 67.4665 30.0827 67.3698 29.9761 67.3123C29.8736 67.3467 29.7029 67.4033 29.6623 67.2829C29.7368 67.0672 29.702 67.1242 29.7831 66.9464C29.9039 66.8706 29.9744 66.8996 30.0782 66.8572C29.8317 66.7222 30.3109 66.5978 30.2409 66.4342C30.1726 66.3357 30.096 66.1226 29.8629 66.1587C29.8508 65.9947 30.0282 65.9693 30.2279 65.9523L30.2368 65.8284C30.2939 66.2153 30.3354 66.6227 30.3888 67.056C30.6006 66.4636 30.901 65.9751 30.9193 65.5926C30.9536 65.3943 30.873 65.2159 30.7299 65.0238C30.6536 64.928 30.5346 64.8268 30.4 64.7194C30.2689 64.6129 30.1018 64.4974 29.8959 64.3691C30.133 64.3887 30.3411 64.3548 30.5239 64.3058C30.7151 64.2576 30.8743 64.1926 30.9924 64.1257C31.2269 63.9924 31.3544 63.8618 31.2411 63.8075C31.1189 63.6011 31.0855 63.4072 31.0445 63.1955C30.9719 62.5491 31.3044 61.951 31.813 61.5739C32.3216 61.187 32.9952 61.0297 33.6219 61.0408C33.9651 61.0252 34.5905 61.0198 35.169 61.1776C35.7485 61.3234 36.237 61.6376 36.4327 61.8939C36.492 61.9648 36.5588 62.0152 36.6123 62.0905C36.5379 61.9372 36.529 61.9554 36.4394 61.8123C36.8802 61.7268 37.3224 61.7433 37.7187 61.8596C37.7583 61.7089 37.8386 61.6001 37.8127 61.3528C37.8492 61.4209 37.8934 61.4776 37.9219 61.5511C38.1172 61.466 38.3026 61.5088 38.4773 61.5747C38.6364 61.6563 38.7822 61.761 38.9235 61.7909C38.7376 61.8858 38.8161 62.0463 38.8772 62.1876L38.9494 62.0566C39.2378 62.5598 39.7004 63.0854 39.8346 63.6078C39.8649 63.6755 39.7949 63.7539 39.7375 63.8039C39.8212 63.9492 39.9349 64.0932 40.0071 64.2519C39.7294 64.2693 39.8279 64.6896 39.6229 64.4903C39.8203 64.6383 39.8613 64.8229 39.8997 65.0038C39.9532 65.1862 39.9701 65.3644 40.1297 65.557C40.0874 66.8599 39.7237 68.2569 38.9048 69.6374L39.0024 69.6869C38.9311 69.8103 38.8812 69.9565 38.8224 70.1001C38.7595 70.2383 38.6966 70.3845 38.6205 70.5267C38.5478 70.6742 38.447 70.7963 38.3249 70.9038C38.201 71.0081 38.0619 71.1097 37.8747 71.1409C37.589 71.7159 36.9017 72.1532 36.8054 72.7545C36.48 72.8886 36.2558 73.0157 36.0231 73.1498C35.9073 73.2176 35.79 73.2912 35.6563 73.3562C35.5221 73.4133 35.3719 73.4673 35.1918 73.5136C35.2926 73.6509 35.1182 73.7458 34.9578 73.8309C34.7862 73.9183 34.698 73.9816 34.8433 74.0939C35.3728 74.4661 35.388 74.1349 35.864 74.4153L35.8404 74.3222C37.992 74.5268 40.3094 73.7124 42.0099 72.1318C42.227 71.8042 42.4735 71.5011 42.6892 71.1668L43.0298 70.6764L43.3463 70.1638C43.57 69.8282 43.7314 69.4529 43.915 69.0922C44.0635 68.7164 44.2168 68.3389 44.3037 67.9485C44.4976 67.1078 44.5489 66.2092 44.4784 65.3667C44.4401 64.9455 44.3639 64.5363 44.277 64.1516L44.2743 64.1509ZM34.5219 73.939C34.587 73.9475 34.5696 74.0112 34.5099 74.0981C34.4987 74.0357 34.4992 73.9751 34.5219 73.939ZM34.0691 74.5581C34.0508 74.5746 34.0334 74.5902 34.0174 74.6049C34.078 74.6999 34.2942 74.6807 34.4163 74.6762C34.4212 74.5822 34.3833 74.5643 34.3856 74.5229C34.4262 74.4864 34.4787 74.4605 34.5336 74.4387C34.5505 74.4351 34.567 74.4307 34.5834 74.4262L34.6142 74.4463C34.6512 74.4258 34.6908 74.4151 34.7274 74.4048C34.755 74.411 34.78 74.4284 34.8001 74.4646C34.7728 74.5011 34.7136 74.4748 34.6717 74.4695C34.7639 74.4802 34.5174 74.6888 34.2496 74.8849C34.1466 74.7984 33.9291 74.7797 33.9616 74.6567C33.9455 74.6718 33.933 74.6843 33.9232 74.6946C33.8992 74.6758 33.8751 74.658 33.851 74.6362C33.9014 74.6005 33.9848 74.5698 34.069 74.5586L34.0691 74.5581Z" fill="var(--fill-0, #F8F6F2)"/>
</g>
</svg>
