<svg viewBox="0 0 71.5169 219.542" fill="none" xmlns="http://www.w3.org/2000/svg">
<path id="Vector" d="M8.44492 135.644L8.39868 135.257C8.67582 135.869 8.94894 136.472 9.21981 137.071C9.50938 137.66 9.8243 138.233 10.1268 138.809C10.4323 139.384 10.738 139.957 11.0453 140.535C11.1988 140.824 11.3522 141.113 11.507 141.404C11.6645 141.693 11.8398 141.976 12.0057 142.264C12.6854 143.412 13.3419 144.611 14.0585 145.858C14.8094 147.087 15.5335 148.415 16.3462 149.823C17.0326 150.761 17.791 151.796 18.5596 152.845C19.3616 153.87 20.1641 154.912 20.9323 155.868C21.7303 156.802 22.4802 157.66 23.1266 158.354C23.788 159.036 24.3592 159.543 24.7533 159.811C25.5824 160.844 26.3519 161.666 27.0454 162.418C27.73 163.178 28.4034 163.811 29.0524 164.459C29.8798 165.261 30.7161 166.049 31.7022 166.942C31.3811 168.357 31.4571 169.755 32.627 170.792C31.6827 170.963 31.2441 172.939 31.4767 172.979C31.6493 173.389 31.7912 173.804 31.9073 174.225C32.6395 176.88 32.3197 179.765 31.9544 182.749C31.7725 184.405 31.5666 188.901 31.2934 190.598C31.2587 190.844 31.2272 191.089 31.2005 191.337C31.2574 191.063 31.3139 190.788 31.3699 190.514C31.6222 191.548 31.8673 192.486 32.0291 193.394C32.1648 193.234 32.296 193.206 32.4828 192.827L32.3925 193.29C32.7844 193.712 32.7671 194.685 32.9326 195.143C32.7271 195.044 32.6861 195.405 32.6554 195.723L32.7911 195.597C32.7056 196.804 32.8725 198.205 32.8471 199.283C32.8471 199.434 32.7706 199.546 32.6999 199.615L32.8587 200.649C32.5833 200.569 32.6167 201.507 32.4445 201.013C32.7697 201.787 32.5704 202.573 32.9072 203.311C32.9481 205.948 33.1571 208.754 33.6171 211.481L33.719 211.414C33.9013 212.369 34.4431 213.211 34.2634 214.371C34.63 215.199 34.8235 216.378 35.3964 216.708C35.4751 217.664 35.7629 218.045 35.9115 218.983C36.1953 218.741 36.2544 219.894 36.4747 219.432C36.8715 218.81 36.5338 218.776 36.8541 218.248L36.7589 218.264C37.1855 215.8 37.4292 213.333 37.5613 210.836C37.3207 209.17 37.5177 207.363 37.4448 205.63C37.3425 203.765 37.1575 201.747 36.9217 200.147C36.8403 199.765 37.0778 199.49 37.2104 199.164C37.0828 197.693 37.1793 195.82 37.024 194.16C37.0231 194.192 37.0178 194.222 37.0143 194.242C36.9671 193.36 37.2585 192.7 37.21 191.838C37.1295 191.843 37.1241 191.709 37.0819 191.645C37.4582 191.495 36.2981 186.575 36.5143 186.271C36.4964 186.182 36.4805 186.089 36.4707 185.994C36.6392 184.177 37.3732 182.297 37.307 180.737C37.1299 180.398 36.9742 180.017 36.7741 179.732C36.936 179.456 36.6228 179.403 36.6659 179.07C37.4212 178.227 37.105 177.732 36.8381 178.168C36.7362 177.474 36.803 176.776 36.7771 176.16C36.722 175.873 36.6642 175.589 36.5988 175.3C36.5356 175.055 36.6477 174.918 36.8265 174.795C36.7193 174.168 36.9057 174.352 36.9822 173.695C37.2465 173.536 36.5623 172.045 36.6424 171.859L36.6811 171.967C36.7273 171.207 37.238 170.702 37.2611 169.958C37.3185 169.347 37.3394 168.718 37.3461 168.087C37.6219 167.973 38.2855 167.576 39.1698 166.831C39.9807 166.043 39.5813 166.297 39.6863 166.096C40.1876 165.716 41.0719 164.906 41.0736 165.131C41.5732 164.383 42.1568 164.218 42.8387 163.402C43.4187 162.666 42.7364 163.391 43.126 162.85C43.6238 162.358 44.1811 161.729 44.7282 161.139C45.2741 160.548 45.8002 159.986 46.1619 159.563C46.5485 159.328 47.5937 158.479 47.1565 159.365C45.7687 160.988 47.3887 158.499 46.0102 160.239C46.8963 159.74 44.7834 161.772 44.6989 162.241C45.2763 161.807 46.2629 160.755 46.9817 159.788L46.794 159.944C47.1152 159.522 47.6005 158.892 48.1143 158.272C48.6245 157.649 49.1294 157.008 49.555 156.612C49.4839 156.898 49.8606 156.555 49.4074 157.192L50.3175 156.045C50.4011 155.874 50.486 155.7 50.2076 156.018C50.563 155.423 51.0003 154.889 51.3624 154.496C51.4108 154.482 51.6898 154.058 52.0785 153.436C52.2711 153.123 52.4931 152.763 52.7293 152.379C52.9619 151.994 53.183 151.568 53.4143 151.154C53.8698 150.324 54.3195 149.504 54.6478 148.905C54.9694 148.304 55.1518 147.911 55.1429 147.975C55.3928 147.546 55.589 147.293 55.7705 147.044C55.7252 147.127 55.6789 147.213 55.6304 147.304C55.4155 147.708 55.1651 148.179 54.8995 148.678C54.6158 149.168 54.3159 149.685 54.0206 150.194C52.8694 152.251 51.6613 154.092 52.0536 153.515C52.3876 153.2 53.9463 150.641 55.3492 148.045C55.6921 147.392 56.0347 146.741 56.3572 146.127C56.6832 145.516 56.9906 144.943 57.2295 144.425C57.7272 143.402 58.1013 142.685 58.2303 142.568C58.5843 141.875 58.9976 141.034 58.7988 141.138C59.4104 139.976 58.8504 141.603 59.3535 140.807C59.3441 140.779 59.2641 140.849 59.3944 140.58L59.9202 139.833C60.0919 139.347 60.3139 138.821 60.5612 138.272C60.804 137.721 61.0958 137.157 61.3249 136.562C61.8097 135.385 62.2924 134.192 62.5722 133.154C62.4685 133.777 62.4276 134.521 62.0224 135.853L61.8698 136.051C61.832 136.248 61.445 137.322 61.5723 137.342C62.1461 136.156 62.5486 135.099 62.953 133.77C63.0811 133.546 63.2252 133.281 63.3329 133.108C63.3151 133.107 63.2941 133.122 63.2782 133.111C63.5242 132.719 63.5063 132.764 63.5006 132.938C63.5011 132.962 63.5006 132.99 63.4917 133.037C63.8133 132.716 64.1732 131.465 64.5855 130.028C64.7822 129.306 65.0241 128.549 65.2114 127.812C65.3964 127.075 65.5922 126.38 65.8035 125.814C65.9467 125.118 65.7608 125.732 65.9338 124.865C66.1375 124.284 66.3261 123.747 66.5071 123.231C66.6682 122.71 66.8052 122.205 66.951 121.698C67.238 120.683 67.5204 119.65 67.8442 118.401C67.8584 117.984 67.8451 117.756 67.7846 117.75C67.7321 117.745 67.6289 117.961 67.4363 118.428C67.6111 117.804 67.709 117.165 67.8362 116.531C67.9705 118.356 68.8259 113.012 68.9318 115.008C69.1159 114.458 69.3415 113.304 69.4269 112.21C69.3312 112.086 69.1778 111.892 69.3201 110.525C69.6591 108.637 69.5608 109.085 69.8601 107.519C70.038 107.156 70.0336 107.741 70.1515 107.684C70.2058 106.455 70.2787 105.925 70.3997 105.413C70.5171 104.901 70.6528 104.405 70.6897 103.244C70.7003 102.517 70.7324 101.435 70.7306 100.527C70.6919 99.6194 70.602 98.885 70.4824 98.8508C70.4601 96.8989 70.6399 96.894 70.8427 97.0853V95.4915C70.8632 96.7802 70.8841 98.0853 70.9054 99.4015L70.9152 100.391L70.8654 101.384C70.8298 102.046 70.7946 102.711 70.7591 103.378C70.7217 104.044 70.6839 104.711 70.6461 105.379C70.6105 106.048 70.5749 106.716 70.4797 107.381C70.3183 108.712 70.1568 110.044 69.9962 111.37C70.2444 109.932 70.4984 108.463 70.7555 106.974C70.9632 105.477 71.0873 103.952 71.2426 102.418C71.3075 101.651 71.4018 100.882 71.4339 100.112C71.4512 99.341 71.4686 98.571 71.4855 97.8023C71.4948 97.0324 71.5037 96.2646 71.5126 95.5004C71.5085 94.7363 71.5415 93.9725 71.4717 93.2212C71.3729 91.7155 71.2541 90.2307 71.1127 88.7832C71.0758 88.4216 71.0389 88.0622 71.0019 87.705C70.969 87.3474 70.9223 86.9942 70.8534 86.6463C70.7302 85.9489 70.6012 85.2629 70.4664 84.5904C70.1968 83.2452 69.9042 81.954 69.5861 80.733C69.4433 80.1191 69.2147 79.5386 69.0167 78.9702C68.8112 78.403 68.5999 77.8554 68.3829 77.3292C68.568 77.0472 68.5968 76.1416 68.531 74.9335C68.4981 74.3294 68.4411 73.6502 68.3687 72.9367C68.2655 72.2308 68.1307 71.495 67.9955 70.7642C67.4413 67.8444 66.7892 65.0314 66.6201 64.9629C65.7465 62.7824 64.8951 60.5734 64.0602 58.3365C63.8027 57.595 63.4748 56.8775 63.1674 56.1489C62.8605 55.4207 62.5518 54.6894 62.2422 53.9551C61.636 52.4836 61.0252 51.0002 60.4092 49.5056C59.7375 48.0377 59.0605 46.5591 58.379 45.0699C58.0436 44.323 57.7073 43.574 57.3697 42.8222C57.0308 42.0714 56.7136 41.3063 56.327 40.5737C55.5909 39.0893 54.8503 37.5952 54.1047 36.0921C53.623 35.1122 53.1395 34.1296 52.6551 33.1439L52.1898 32.1978L51.9567 31.7227L51.8397 31.4847L51.7815 31.3659C51.7637 31.3236 51.7014 31.3592 51.6631 31.3521C50.9616 31.3997 50.2588 31.4473 49.5556 31.4945C48.4804 31.5634 47.4027 31.6323 46.3222 31.7017C45.4806 31.7511 44.6373 31.8009 43.7921 31.8508L43.4749 31.869L43.3175 31.8779L43.2716 31.8788L43.0911 31.8814L42.741 31.885H42.0915C42.1912 31.5291 42.2913 31.172 42.3918 30.8134L42.4095 30.7529L42.4184 30.7227C42.4216 30.712 42.4225 30.7133 42.4344 30.6568L42.5474 30.1466L42.7743 29.1249C42.9255 28.443 43.0772 27.7602 43.2288 27.0765C43.4156 26.2163 43.6327 25.215 43.885 24.0535C44.0095 23.4721 44.1425 22.8508 44.2844 22.1867C44.4939 21.1787 44.7172 20.1062 44.9543 18.9648C43.6248 16.7221 42.1267 14.1955 40.5453 11.5284C39.633 9.99647 38.6967 8.4245 37.7487 6.83293C36.394 4.57317 35.0235 2.28546 33.6535 0C31.6897 3.17556 29.7289 6.34574 27.8242 9.42568C26.774 11.0955 25.7545 12.716 24.795 14.2408C24.3137 15.0023 23.8476 15.7403 23.4001 16.4484C22.953 17.1579 22.5149 17.8247 22.1319 18.5008C21.345 19.8294 20.6449 21.0118 20.0599 21.9997C19.35 23.203 18.6436 24.3995 17.9275 25.6143C18.7382 24.2831 19.5491 22.9519 20.3602 21.6208C19.6982 22.9312 19.0524 24.211 18.419 25.4653C18.1067 26.0938 17.7811 26.7072 17.4889 27.3304C17.2082 27.9594 16.9302 28.5821 16.6544 29.2004C15.5441 31.6634 14.4708 34.044 13.4153 36.386C13.9282 35.6285 14.1265 35.5466 15.2457 33.7104L14.0002 36.0106C13.6603 37.1666 12.9891 39.0233 12.2445 40.8711C11.874 41.7954 11.5012 42.7255 11.1609 43.5742C10.8308 44.4265 10.4981 45.1823 10.3286 45.809C10.3322 45.2125 9.5818 47.103 8.92433 48.7746L9.29975 48.1572C8.68366 49.7444 8.05873 51.4022 7.43465 53.084C7.26964 53.5013 7.13838 53.9323 7.00807 54.3642L6.61086 55.6595C6.34751 56.5242 6.08422 57.3885 5.82307 58.2478C4.6981 61.6605 3.97798 65.0967 3.208 68.0454C3.00919 68.8714 2.7565 69.4671 2.62577 69.8335L1.69121 75.6153C1.60578 75.372 1.29311 76.5503 1.11294 77.4555C0.947465 78.3634 0.832251 78.9839 0.926982 77.581C0.805969 79.7859 0.555111 81.9811 0.309583 84.1518C0.156122 86.3323 0.0684967 88.4954 0.0867323 90.5878C-0.205978 98.0514 0.227288 105.798 1.61424 113.446C2.98782 121.095 5.31153 128.625 8.44618 135.644L8.44492 135.644ZM4.60745 97.9139C4.59052 98.0553 4.53403 98.0664 4.4589 98.0313C4.44954 97.7813 4.44244 97.5313 4.43711 97.2809C4.61816 97.4544 4.80318 97.6354 4.91928 97.7644C4.90104 97.9423 4.96688 98.34 4.64883 98.372C4.28986 98.0295 5.03361 98.2079 4.60745 97.9139ZM31.4334 165.19L31.4241 165.318C29.1693 162.838 27.0395 160.236 25.0432 157.534C24.541 156.861 24.069 156.164 23.5797 155.482L22.8511 154.454L22.1581 153.401L20.7743 151.294L19.4679 149.136C16.0081 143.369 13.0763 137.269 10.7993 130.895C10.4088 129.835 10.0138 128.764 9.61608 127.684C9.42839 127.14 9.20371 126.605 9.04717 126.046C8.88216 125.489 8.71668 124.931 8.55073 124.371C8.22871 123.247 7.87241 122.125 7.58189 120.98C7.31943 119.828 7.05567 118.671 6.79191 117.511C6.66468 116.93 6.51837 116.352 6.4076 115.767L6.114 114.002C5.91738 112.825 5.72034 111.648 5.5233 110.473C5.37386 109.29 5.25954 108.105 5.12207 106.926C5.05492 106.337 4.98773 105.748 4.92059 105.161C4.88903 104.868 4.84717 104.575 4.82319 104.281L4.77251 103.398C4.68796 101.751 4.5461 100.083 4.47269 98.4026C4.47624 98.4049 4.48027 98.4079 4.48382 98.4102L4.47049 98.343C4.47049 98.343 4.47049 98.3412 4.47049 98.3403C4.68666 98.4644 5.10749 98.7255 5.19375 99.0347C5.06966 99.085 5.10122 99.2278 4.9442 99.1343L5.18842 99.3687C5.24538 99.3674 5.30406 99.3665 5.24669 99.2829C5.42774 99.3149 5.51672 99.4568 5.56516 99.5893C5.5127 99.709 7.27946 100.341 7.18698 100.366C7.27685 100.439 7.30663 100.518 7.3418 100.588C6.81913 100.269 5.56698 99.6285 5.77918 99.7655C5.84992 100.004 8.29282 101.059 8.25593 101.338C8.39962 101.447 8.58334 101.566 8.63271 101.442C8.8262 101.685 8.40673 101.569 8.49571 101.8C8.51264 101.788 8.5233 101.74 8.57309 101.788L8.62916 102.045C9.11844 102.198 9.48367 102.841 10.0308 102.959C9.8324 102.973 9.55171 103.052 9.22749 102.943V102.856C9.16787 102.857 8.9388 102.721 8.86272 102.824C9.03975 103.083 9.25325 103.232 9.57752 103.341C9.60066 103.405 9.63092 103.476 9.64335 103.533C9.65312 103.519 9.65845 103.505 9.67136 103.491C9.70025 103.619 9.68338 103.622 9.62245 103.635C9.6131 103.639 9.60155 103.643 9.58687 103.643C9.49256 104.05 10.6487 104.227 10.9475 104.73C11.1059 104.795 11.0001 104.691 11.2011 104.767C11.5382 105.244 11.7633 105.582 12.1601 106.028C12.4079 106.026 12.4603 105.987 12.3936 105.712L12.7014 106.039C12.116 106.105 13.0768 106.887 12.4598 106.926C12.4968 107.085 12.6885 107.272 12.9243 107.38C13.0128 107.314 13.1538 107.206 13.3944 107.409C13.6373 107.8 13.591 107.693 13.7796 108.032C13.7556 108.194 13.6181 108.15 13.5576 108.246C14.1008 108.468 13.7351 108.793 14.1555 109.111C14.4348 109.292 14.9446 109.699 15.1145 109.521C15.4481 109.816 15.3325 109.954 15.1701 110.078L15.4294 110.331C14.522 109.593 13.6368 108.735 12.773 107.879C14.2543 110.214 16.1629 112.783 18.8652 112.735C18.4271 113.6 20.1031 115.582 20.2926 115.438C20.8104 115.647 21.3135 115.885 21.8045 116.146C24.908 117.798 27.5614 120.446 30.2849 123.212C30.3543 123.28 30.429 123.354 30.5082 123.432C30.5482 123.472 30.5896 123.512 30.6319 123.553C30.7066 123.621 30.7836 123.691 30.8627 123.763C31.1994 124.067 31.57 124.401 31.969 124.76C32.5526 125.28 33.1954 125.854 33.8764 126.46C34.1014 127.165 34.4031 127.858 34.262 128.741C34.6286 129.545 34.8221 130.688 35.395 131.008C35.399 131.054 35.4052 131.094 35.4106 131.138C35.3269 131.141 35.2433 131.144 35.1606 131.147C34.6468 131.184 34.146 131.267 33.674 131.36C33.2056 131.492 32.7537 131.582 32.3547 131.762C31.9819 131.949 31.6283 131.768 31.2502 131.773C30.8832 131.948 30.4749 132.086 30.0834 132.303C29.8846 132.404 29.6822 132.508 29.4771 132.612C29.2752 132.721 29.0812 132.851 28.8815 132.972C28.0795 133.457 27.3487 134.097 26.7611 134.774C26.7842 134.75 26.8105 134.73 26.8296 134.718C26.524 135.083 26.1908 135.339 25.8848 135.628C25.5957 135.928 25.2647 136.208 25.0512 136.634C25.1215 136.673 25.0503 136.8 25.0498 136.882C24.843 136.844 24.2741 138.161 24.0841 139.54C23.8715 140.926 24.0526 142.279 23.9422 142.427C23.9556 142.52 23.9672 142.616 23.9725 142.713C23.9231 143.181 23.8728 143.658 23.8226 144.138C23.811 144.619 23.7443 145.12 23.7857 145.605C23.7968 145.849 23.8119 146.094 23.8324 146.337C23.8648 146.575 23.9133 146.808 23.9632 147.039C24.0522 147.505 24.2323 147.925 24.4347 148.306C24.7443 148.569 25.1193 148.83 25.4373 148.983C25.4524 149.324 25.7473 149.194 25.919 149.495C25.8759 150.076 26.0227 150.444 26.1699 150.565C26.3113 150.695 26.4283 150.607 26.3736 150.347C26.9296 150.836 27.4199 151.384 27.9474 151.772C28.2236 151.91 28.4945 152.045 28.7761 152.164C29.0274 152.245 29.0866 152.411 29.1066 152.633C29.7289 152.885 29.4647 152.946 30.0687 153.325C30.0883 153.483 30.538 153.589 31.0042 153.608C31.2319 153.621 31.4628 153.635 31.646 153.645C31.8315 153.644 31.9676 153.651 32.0094 153.682L31.8898 153.691C32.6344 153.95 33.0828 154.54 33.9044 154.656C34.0525 154.682 34.2028 154.703 34.3536 154.72C34.3047 154.852 34.3092 155.019 34.3385 155.169L34.3835 155.126C34.4279 155.315 34.4982 155.694 34.3176 155.899C34.1993 155.85 34.1099 155.94 34.081 155.801L34.0587 156.062C34.0961 156.095 34.1348 156.129 34.1619 156.054C34.254 156.176 34.2024 156.3 34.1326 156.394C34.0071 156.423 34.6601 157.781 34.5814 157.739C34.5832 157.828 34.5418 157.885 34.5116 157.94C34.419 157.473 34.1037 156.415 34.1353 156.608C33.9974 156.769 34.7629 158.737 34.525 158.854C34.5343 158.993 34.561 159.161 34.6882 159.128C34.6264 159.363 34.4453 159.058 34.3261 159.225C34.3461 159.229 34.3897 159.211 34.3852 159.265L34.2242 159.426C34.4217 159.791 34.1651 160.327 34.4262 160.709C34.2883 160.598 34.0463 160.472 33.9217 160.226L33.9884 160.183C33.9493 160.148 33.9053 159.945 33.778 159.951C33.6935 160.185 33.7166 160.385 33.8416 160.631C33.8073 160.676 33.7731 160.729 33.738 160.765C33.7548 160.764 33.7686 160.76 33.7877 160.761C33.7086 160.842 33.6957 160.833 33.6463 160.804C33.637 160.8 33.6267 160.795 33.6174 160.787C33.2451 160.934 33.8536 161.705 33.6606 162.132C33.7135 162.258 33.7242 162.144 33.7953 162.3C33.6477 162.737 33.5338 163.037 33.4475 163.493C33.6081 163.639 33.6721 163.65 33.8398 163.475L33.7873 163.819C33.3598 163.506 33.3794 164.462 32.9524 164.117C32.8545 164.218 32.8345 164.424 32.9039 164.617C33.0115 164.637 33.1841 164.667 33.1837 164.909C33.0409 165.247 33.0929 165.167 32.9555 165.446C32.8158 165.512 32.7606 165.41 32.6486 165.422C32.8278 165.853 32.3443 165.798 32.371 166.205C32.3772 166.243 32.383 166.288 32.3892 166.336C32.3572 166.301 32.3265 166.268 32.294 166.232C32.3256 165.748 32.3732 165.26 32.4248 164.775C32.2758 165.139 32.1303 165.515 32.0009 165.896C31.8248 165.688 31.6379 165.458 31.4338 165.188L31.4334 165.19ZM41.0561 98.1367C41.8422 97.1421 42.5436 96.2276 43.2713 95.4002C43.0373 95.4207 42.927 95.3419 42.4587 95.4936L42.9413 95.2032C43.0752 94.5769 43.9791 93.8353 44.2918 93.3545C44.3345 93.588 44.6908 93.3394 45.0026 93.1166L44.7993 93.1104C45.9612 92.2399 47.1377 91.0264 48.1434 90.2093C48.2813 90.0923 48.4344 90.0638 48.542 90.0652L49.388 89.1422C49.4926 89.4139 50.3306 88.6617 49.9895 89.176C50.4894 88.3277 51.3382 87.8709 51.7972 87.0413C54.1894 84.9649 56.6274 82.6296 58.8306 80.1644L58.7034 80.1382C59.4613 79.2588 59.8826 78.1926 61.0627 77.4301C61.5857 76.508 62.5412 75.4462 62.4736 74.7532C62.922 74.3181 63.176 73.9668 63.4358 73.6025C63.4607 73.7208 63.486 73.8404 63.5109 73.957C63.5439 74.1892 63.5759 74.4178 63.6079 74.6438C63.7307 75.5485 63.8308 76.4101 63.9313 77.2678C64.0314 78.1254 64.1319 78.9781 64.2547 79.8655C64.3116 80.3099 64.3943 80.76 64.4491 81.2293C64.4971 81.6994 64.5527 82.183 64.619 82.6856C64.7929 84.0828 64.9691 85.496 65.1461 86.9199C65.2555 87.6293 65.2969 88.3473 65.3458 89.0665C65.3978 89.7854 65.4499 90.506 65.5024 91.2279C65.6127 92.3159 65.6754 93.4075 65.7155 94.5004C63.0755 96.1934 60.5413 98.0185 58.0481 99.9512C56.5535 101.526 54.6368 102.883 52.9683 104.385C51.1877 106.019 49.3088 107.844 47.8765 109.36C47.5509 109.741 47.1253 109.789 46.7173 109.96C45.3429 111.285 43.4266 112.774 41.8831 114.278C41.9146 114.253 41.948 114.231 41.9698 114.217C41.1269 114.989 40.2853 115.317 39.4642 116.073C39.5202 116.131 39.3916 116.247 39.3543 116.333C39.1822 116.261 38.2867 117.189 37.3001 118.258C37.1992 117.083 37.0702 115.929 36.9198 114.941C36.8384 114.57 37.0759 114.303 37.2085 113.987C37.0808 112.56 37.1773 110.742 37.0221 109.132C37.0212 109.162 37.0159 109.191 37.0123 109.21C36.9652 108.355 37.2565 107.714 37.2081 106.878C37.1275 106.882 37.1222 106.753 37.0799 106.69C37.422 106.558 36.4941 102.6 36.4857 101.662C37.4189 100.925 38.345 100.194 39.2084 99.5126C39.9899 98.9411 40.6878 98.4455 41.1811 98.1301C41.4271 97.9629 41.6713 97.7965 41.9191 97.6284C41.6308 97.798 41.3427 97.9676 41.0548 98.1372L41.0561 98.1367ZM36.9105 70.5033C37.0573 70.5269 37.1356 70.5523 37.0084 70.6088C36.9638 70.5803 36.922 70.547 36.9105 70.5033ZM35.157 154.769C35.1446 154.897 35.1303 155.018 35.1143 155.107C34.9666 155.184 34.7046 155.421 34.4751 155.249C34.5067 154.866 34.8488 155.395 34.7994 154.997C34.5681 155.114 34.6081 154.907 34.5756 154.74C34.7682 154.756 34.9617 154.767 35.157 154.769ZM32.2573 167.441C32.2608 167.444 32.2644 167.447 32.2679 167.45L32.2564 167.565C32.2555 167.524 32.2577 167.482 32.2573 167.441ZM37.3335 166.053C37.3335 166.041 37.3335 166.028 37.3335 166.016C37.3767 165.946 37.4011 165.896 37.398 165.875C37.3775 165.901 37.3562 165.929 37.333 165.96C37.333 165.931 37.3326 165.904 37.3321 165.875C37.369 165.859 37.3949 165.855 37.398 165.875C37.4491 165.808 37.4896 165.754 37.5185 165.713L37.8962 165.432C37.7757 165.589 37.5706 165.813 37.3344 166.054L37.3335 166.053ZM65.6816 104.203C65.65 104.913 65.6318 105.622 65.5891 106.325C65.517 107.025 65.4459 107.722 65.3751 108.414C65.3035 109.106 65.2328 109.794 65.1625 110.476C65.0882 111.158 65.0379 111.838 64.909 112.501C64.6835 113.831 64.4619 115.138 64.2453 116.417C64.5006 116.568 64.5535 114.149 64.9352 114.088C63.9362 120.152 62.0452 126.067 59.8225 131.803C59.335 132.806 58.6962 134.011 58.4253 134.444C57.5957 136.222 58.1166 135.572 57.4823 136.863L57.1731 136.936C56.823 137.928 56.4364 138.595 56.0468 139.239C55.6643 139.887 55.2083 140.477 54.8044 141.377C54.8449 141.516 54.5211 142.159 54.1883 142.775C54.0567 142.724 53.8338 143.215 53.5656 143.663C53.3076 144.116 53.0608 144.556 52.982 144.452L52.9891 144.48C52.7716 144.842 52.6351 145.108 52.3348 145.53C52.2498 145.712 52.0034 146.285 51.6364 147.034C51.2539 147.776 50.7744 148.707 50.2949 149.638C50.0614 150.109 49.8051 150.567 49.5551 150.998C49.3087 151.432 49.0756 151.843 48.8684 152.209C48.4511 152.939 48.1522 153.499 48.0414 153.673L47.7732 153.949C47.0891 154.851 46.9485 155.357 47.3902 154.86L46.5251 155.962L46.6091 155.822C46.3271 156.192 46.03 156.547 45.7266 156.899C45.5447 157.082 45.2644 157.227 45.4264 156.849C44.994 157.511 44.4727 158.231 43.926 158.799C44.6946 158.012 45.5562 157.13 46.4276 156.238C47.2825 155.324 48.1472 154.4 48.9386 153.554C48.4582 154.379 47.283 155.638 46.6856 156.475C45.7746 157.318 44.0638 159.167 42.6547 160.522C42.3838 160.855 42.4042 161.276 41.6329 161.89C41.1552 162.092 40.8852 162.699 40.2117 163.171C40.7851 162.433 41.4367 161.801 42.0959 161.128C41.8028 161.076 40.4114 162.686 39.8305 163.152C39.6361 163.45 38.303 164.674 37.5072 165.481C37.5833 165.293 37.4961 165.317 37.3266 165.44C37.3261 165.368 37.3248 165.296 37.3244 165.225C37.533 164.957 37.581 164.869 37.3564 165.106C37.3933 165.088 37.3778 165.127 37.3239 165.208C37.3217 164.697 37.3262 164.199 37.3489 163.723C37.0722 163.703 37.4103 164.145 37.0437 164.167C37.0917 163.038 37.4352 161.901 37.4814 160.762C37.5557 160.556 37.6949 160.305 37.783 160.212C37.8862 159.848 37.6509 159.997 37.6865 159.73L37.9365 159.694C37.7319 159.305 38.2136 159.125 38.11 158.758C38.0094 158.739 37.9961 158.605 38.0041 158.475C38.2688 158.468 37.9854 158.074 38.2274 158.093L38.2074 158.089C38.2119 158.01 38.1945 157.955 38.2403 157.859C38.1474 157.709 37.4214 156.311 37.3089 156.16L37.3525 156.089C37.3445 155.88 37.1479 155.791 37.1003 155.913L37.1149 155.655L37.1332 155.685L37.1483 155.428C37.1714 155.381 37.2951 155.327 37.4112 155.4C37.3186 155.255 37.2688 155.092 37.316 154.947C37.1522 155.351 36.9214 155.853 36.6536 156.275C36.5624 156.102 36.7034 155.788 36.6745 155.6C36.8427 155.384 36.9864 154.949 37.1042 154.597C37.2016 154.579 37.2991 154.562 37.3956 154.543C38.5486 154.278 39.6223 153.843 40.5836 153.389C40.4737 153.135 40.1903 153.65 40.0071 153.331C41.1111 152.846 42.3682 152.426 43.3188 151.551C43.5452 151.455 43.8285 151.332 43.9687 151.315C44.3272 151.075 44.0368 151.044 44.2662 150.842L44.4842 150.974C44.6177 150.504 45.1096 150.623 45.2911 150.212C45.2213 150.135 45.3076 150.004 45.3975 149.882C45.623 150.021 45.6301 149.471 45.8227 149.618L45.808 149.604C45.8605 149.526 45.8805 149.461 45.9783 149.386C45.9881 149.288 46.0482 148.79 46.0442 148.293C46.0482 148.047 46.0473 147.806 46.0424 147.615C46.0291 147.42 46.0095 147.274 45.9984 147.225L46.0664 147.167C46.1398 146.945 45.9876 146.788 45.8974 146.896L46.0072 146.637L46.0139 146.673L46.1225 146.415C46.1625 146.374 46.2928 146.351 46.384 146.464C46.3382 146.28 46.3355 146.093 46.4214 145.949C46.1674 146.347 45.7479 146.786 45.3472 147.099C45.3258 146.896 45.5705 146.639 45.6105 146.442C45.8707 146.281 46.1172 145.835 46.3373 145.483C46.3396 145.394 46.0775 145.279 46.2337 145.116C46.4489 145.061 46.2608 144.9 46.4307 144.766C46.5072 144.967 46.4374 145.142 46.3862 145.324C46.6376 145.344 46.6238 144.897 46.7158 144.758C46.6509 144.676 46.7879 144.319 46.7479 144.081C46.8942 144.162 46.9173 144.063 46.952 143.948C46.9351 143.918 46.9178 143.887 46.9 143.854C46.9187 143.886 46.936 143.916 46.9529 143.945C46.9716 143.885 46.9929 143.821 47.0374 143.776C47.0743 143.618 46.9862 143.51 46.9013 143.571C46.847 143.557 46.8092 143.582 46.7785 143.622C46.754 143.574 46.7291 143.525 46.7046 143.478C46.5316 143.14 46.3684 142.835 46.3612 142.911C46.3363 142.958 46.2994 142.96 46.2603 142.95C46.2452 142.93 46.2234 142.92 46.1896 142.925C46.137 142.904 46.0877 142.89 46.0637 142.954L46.1206 143.012C46.0748 143.323 45.7612 143.192 45.4329 143.07C45.0811 142.937 44.7172 142.824 44.6616 143.158C44.9752 142.878 44.9645 143.261 44.9832 143.571C44.8791 143.594 44.7257 143.719 44.6331 143.924C44.6287 144.109 44.7257 144.044 44.796 144.088C44.7132 144.184 44.6278 144.371 44.4757 144.322C44.6398 144.493 44.3227 144.529 44.361 144.707C44.4233 144.872 44.4428 144.712 44.5148 144.836C44.4459 145.056 44.3352 145.359 44.2564 145.524C44.0958 145.555 43.7943 145.676 43.6114 145.467C43.7226 145.161 43.9392 145.693 43.9771 145.346C43.6141 145.401 43.9633 145.027 43.7293 144.911C43.5541 144.98 43.5002 145.182 43.4971 145.366L43.5491 145.344C43.5642 145.51 43.5171 145.835 43.2876 145.933C43.1897 145.855 43.0812 145.893 43.0923 145.778L42.9994 145.967C43.0256 146.005 43.0519 146.045 43.0981 145.998C43.1497 146.124 43.067 146.201 42.9762 146.246C42.9215 146.236 42.9157 146.534 42.9197 146.85C42.9313 147.167 42.9055 147.478 42.8792 147.443C42.8414 147.509 42.7814 147.529 42.7311 147.553C42.7778 147.415 42.8299 147.212 42.8588 147.007C42.9081 146.639 42.9326 146.307 42.9077 146.405C42.8075 146.431 42.7933 146.894 42.6906 147.342C42.6395 147.565 42.583 147.792 42.5238 147.959C42.4562 148.122 42.3801 148.22 42.3183 148.206C42.2556 148.306 42.1911 148.436 42.309 148.491C42.1399 148.614 42.1515 148.296 41.9731 148.336C41.9869 148.35 42.0301 148.365 41.9998 148.398L41.7943 148.405C41.7534 148.765 41.2677 148.92 41.229 149.325C41.2045 149.168 41.1013 148.918 41.14 148.688L41.2121 148.709C41.2023 148.661 41.2774 148.513 41.1791 148.433C40.9923 148.509 40.9131 148.641 40.866 148.866C40.8153 148.866 40.761 148.869 40.7161 148.862C40.7281 148.873 40.7401 148.881 40.753 148.896C40.6516 148.881 40.6484 148.867 40.6307 148.816C40.6262 148.807 40.6218 148.797 40.6204 148.786C40.2868 148.582 40.2681 149.444 39.8629 149.48C39.8166 149.581 39.8935 149.536 39.8384 149.667C39.4888 149.762 39.2157 149.756 38.8879 149.867C38.8741 150.063 38.8937 150.127 39.0934 150.201C39.0089 150.234 38.9235 150.264 38.8332 150.284C38.8425 149.807 38.2153 150.128 38.2572 149.635C38.1504 149.577 38.0161 149.62 37.9235 149.743C37.9538 149.847 38.0058 150.021 37.839 150.077C37.5601 150.026 37.6322 150.055 37.4018 149.994C37.3137 149.877 37.3622 149.8 37.3177 149.697C37.1016 149.974 36.9872 149.489 36.7448 149.58C36.5967 149.662 36.2862 149.763 36.3187 149.993C36.087 150.015 36.0611 149.838 36.0514 149.638H35.8721C36.0127 149.61 36.1559 149.591 36.3027 149.578C36.4473 149.554 36.5927 149.529 36.7395 149.504C37.0415 149.48 37.3302 149.39 37.638 149.343C36.8578 149.21 36.1519 148.962 35.559 148.967C35.2547 148.937 34.9736 149.028 34.6849 149.161C34.5408 149.234 34.3931 149.353 34.2419 149.482C34.0915 149.606 33.9349 149.767 33.7677 149.966C33.7788 149.728 33.7139 149.517 33.6231 149.326C33.5342 149.125 33.4172 148.953 33.2997 148.822C33.0649 148.564 32.842 148.394 32.7829 148.508C32.4977 148.605 32.2331 148.594 31.9444 148.601C31.0645 148.548 30.2461 148.041 29.6865 147.315C29.1162 146.589 28.8173 145.652 28.7453 144.738C28.6794 144.238 28.6194 143.303 28.8026 142.414C28.9685 141.523 29.3898 140.738 29.7225 140.391C29.8155 140.288 29.8835 140.175 29.9863 140.08C29.7905 140.225 29.8137 140.237 29.6335 140.4C29.6335 139.77 29.7608 139.175 29.9925 138.64C29.8204 138.624 29.7074 138.548 29.416 138.635C29.5032 138.574 29.5757 138.504 29.6714 138.453C29.6149 138.227 29.7043 137.99 29.8177 137.763C29.9516 137.557 30.1091 137.364 30.1727 137.191C30.2514 137.388 30.4672 137.264 30.6602 137.167L30.5094 137.11C31.202 136.672 31.98 136.081 32.709 135.883C32.8046 135.842 32.9056 135.909 32.9683 135.962C33.181 135.863 33.3909 135.726 33.6178 135.646C33.6191 135.925 34.2249 135.798 33.9278 136.018C34.0408 135.922 34.1613 135.844 34.2877 135.803C34.4144 135.766 34.5439 135.744 34.6734 135.72C34.9327 135.659 35.1876 135.648 35.454 135.494C37.2858 135.564 39.2256 136.179 40.9701 137.404L41.0106 137.297C41.1659 137.404 41.3443 137.487 41.5168 137.581C41.6827 137.682 41.8562 137.781 42.0266 137.896C42.2041 138.005 42.35 138.149 42.4843 138.315C42.6142 138.483 42.7472 138.666 42.801 138.907C42.9562 139.019 43.1124 139.156 43.2699 139.302C43.4273 139.447 43.5545 139.613 43.7022 139.762C44.0021 140.06 44.2609 140.336 44.5763 140.413C44.6479 140.624 44.7356 140.798 44.8049 140.96C44.8712 141.124 44.9424 141.271 45.0158 141.419C45.0883 141.568 45.1675 141.717 45.2369 141.887C45.2951 142.057 45.3516 142.247 45.3997 142.474C45.5358 142.349 45.6323 142.569 45.7195 142.769C45.8098 142.98 45.8707 143.103 45.9833 142.912C46.3476 142.259 46.0193 142.237 46.2906 141.657L46.1981 141.684C46.3502 139.046 45.3097 136.26 43.3699 134.212C42.9803 133.939 42.6173 133.632 42.2116 133.368C42.0146 133.23 41.8157 133.091 41.6169 132.951C41.4096 132.823 41.201 132.695 40.9924 132.567C40.5836 132.294 40.125 132.103 39.6864 131.879C39.2283 131.702 38.7706 131.513 38.2964 131.406C37.8614 131.311 37.4192 131.225 36.9699 131.183C37.2635 129.236 37.4512 127.285 37.5585 125.313C37.5429 125.208 37.5335 125.1 37.5216 124.994C37.9423 124.661 38.3632 124.327 38.7786 123.998C39.0562 123.776 39.1193 123.735 39.255 123.633C39.3782 123.541 39.5001 123.451 39.6206 123.361C40.5846 122.647 41.4551 122.018 42.0475 121.633C42.3113 121.451 42.5738 121.271 42.8393 121.088C42.5312 121.274 42.2231 121.459 41.915 121.645C42.777 120.589 43.5475 119.619 44.3424 118.737C44.0968 118.767 43.9847 118.69 43.4887 118.864L44.0056 118.547C44.1711 117.895 45.1457 117.096 45.4922 116.588C45.5274 116.827 45.9103 116.557 46.2453 116.315L46.0331 116.317C47.2831 115.375 48.5628 114.078 49.6473 113.197C49.7958 113.071 49.9573 113.036 50.0703 113.033L50.9919 112.049C51.0907 112.326 51.9972 111.518 51.6196 112.062C52.1765 111.168 53.0826 110.664 53.5963 109.791C56.1816 107.559 58.8252 105.058 61.229 102.43L61.0973 102.408C61.9251 101.472 62.4086 100.356 63.6736 99.5244C64.2572 98.5529 65.2999 97.4213 65.2572 96.7078C65.456 96.5175 65.617 96.344 65.7611 96.1776C65.7865 97.424 65.7985 98.6695 65.8305 99.9101C65.8221 101.351 65.7269 102.783 65.6811 104.205L65.6816 104.203ZM46.7694 143.632C46.6822 143.759 46.6609 144.024 46.5381 143.987C46.5527 144.007 46.5652 144.022 46.575 144.033C46.5558 144.063 46.5381 144.093 46.5153 144.123C46.4802 144.062 46.4509 143.96 46.441 143.857C46.4575 143.879 46.4726 143.9 46.4873 143.919C46.5825 143.843 46.566 143.58 46.5629 143.43C46.4695 143.425 46.4512 143.472 46.4094 143.47C46.3729 143.42 46.348 143.356 46.3267 143.288C46.3236 143.268 46.3191 143.247 46.3147 143.227L46.3352 143.189C46.3152 143.144 46.3058 143.093 46.296 143.049C46.3027 143.015 46.3201 142.985 46.3561 142.961C46.3921 142.994 46.3654 143.067 46.3596 143.118C46.3712 143.005 46.5767 143.308 46.7694 143.632ZM45.8281 143.308C45.8375 143.227 45.9007 143.248 45.9865 143.321C45.9242 143.335 45.8637 143.335 45.8281 143.308ZM7.61622 68.3959C7.84884 67.4159 8.08993 66.4022 8.33729 65.3617C8.46274 64.8417 8.58992 64.3151 8.71893 63.7826C8.78388 63.5162 8.84882 63.2489 8.91419 62.9793C8.98624 62.712 9.07434 62.4469 9.15439 62.1786C9.81495 60.0378 10.5004 57.8154 11.1952 55.562C12.7939 51.1218 14.4143 46.546 16.2581 42.3625C16.1861 42.5187 16.1162 42.6694 16.0704 42.7691C16.5442 41.6517 17.0068 40.6126 17.4631 39.6144C17.6967 39.118 17.9048 38.6211 18.1557 38.1492C18.4071 37.6777 18.6561 37.2111 18.9048 36.7454C19.9008 34.8834 20.8878 33.0365 21.9225 30.9031C21.8406 30.8871 22.1636 30.2266 22.285 29.8872C22.5634 29.6563 24.7533 25.584 27.3078 20.691C28.6841 18.2686 30.1698 15.6535 31.5514 13.2217C31.7239 12.9179 31.8952 12.6167 32.0642 12.3191C32.1483 12.171 32.2324 12.0238 32.3156 11.8775L32.4205 11.6764C32.5669 11.3993 32.7088 11.1306 32.8449 10.873C33.1447 10.3206 33.4187 9.81615 33.6531 9.38289C34.1228 10.0799 34.4684 10.6306 34.5272 10.8072C34.6633 10.9967 34.8074 11.2031 34.9528 11.4228C35.7878 12.8827 36.628 14.3515 37.4674 15.8198C37.9144 16.616 38.3619 17.4114 38.808 18.2058L39.4695 19.3912L39.7119 19.8921L39.5914 20.2924L39.562 20.389L39.5451 20.4472L39.5158 20.57L39.3974 21.0602C39.2399 21.7132 39.0834 22.3635 38.9273 23.0107C38.6181 24.3055 38.3117 25.5884 38.0096 26.8535C37.8615 27.4869 37.7142 28.1154 37.5683 28.7395C37.4963 29.0517 37.4246 29.3627 37.3535 29.6722C37.2396 30.1994 37.1266 30.7242 37.0136 31.2465C36.5635 33.3887 36.1213 35.4913 35.689 37.5464C37.3868 37.4218 39.038 37.3009 40.6535 37.1825C41.4711 37.0793 42.314 36.973 43.1619 36.8662L43.741 36.791L44.1053 36.7319C44.3477 36.6923 44.5893 36.6532 44.829 36.614C45.7863 36.4565 46.7066 36.2991 47.4922 36.1403C47.6857 36.1461 47.8587 36.1461 48.018 36.1416C48.074 36.1398 48.1279 36.1376 48.1794 36.1358C48.2088 36.1332 48.2373 36.1309 48.2649 36.1282C48.3747 36.114 48.4739 36.0842 48.5842 36.0495C48.6945 36.0148 48.816 35.9757 48.9637 35.9441C49.0006 35.9369 49.0384 35.9298 49.0789 35.9218L49.1403 35.912C49.1625 35.9067 49.1843 35.9031 49.1897 35.9289C49.2297 36.0001 49.2715 36.0841 49.3142 36.1815C49.3613 36.4631 49.4063 36.7295 49.4477 36.9773C49.6158 37.4568 49.7902 37.915 49.9507 38.3189C50.275 39.132 50.5673 39.7694 50.7897 40.1956C51.235 41.0483 51.4026 41.0576 50.9863 39.9233C52.8657 43.2737 54.2388 46.8691 55.6528 49.962C56.3726 51.372 56.9272 52.8351 57.5638 54.2949C58.1007 55.536 58.2626 56.2806 58.3351 56.9776C58.9921 58.5754 59.21 59.1452 59.344 59.7631C59.4939 60.376 59.6282 61.0161 60.1393 62.7482C60.1424 62.9764 60.3408 63.6214 60.6397 64.4763C60.7945 64.9025 60.9689 65.3833 61.153 65.8918C61.2482 66.1453 61.3456 66.4056 61.4448 66.6697C61.5369 66.9357 61.6174 67.2084 61.7055 67.4797C62.3976 69.6535 63.1205 71.8487 63.2094 72.3531L63.024 71.7905C63.0729 71.9902 63.1192 72.1845 63.1645 72.379C63.1027 72.4025 63.0315 72.4243 62.9466 72.4448L63.0227 72.5053C60.4881 74.0897 58.0687 75.8161 55.6939 77.6514C54.3216 79.1273 52.537 80.3781 50.9953 81.7766C49.3513 83.3006 47.6204 85.0064 46.3056 86.4272C46.008 86.7853 45.6024 86.8173 45.218 86.9685C43.9512 88.2069 42.172 89.5849 40.7503 90.9905C40.7797 90.9674 40.8108 90.9474 40.8313 90.9349C40.0533 91.6546 39.2593 91.9442 38.5013 92.6488C38.5574 92.7071 38.4381 92.8143 38.4061 92.897C38.2486 92.8259 37.508 93.594 36.6665 94.5219C36.6669 94.5104 36.6651 94.5006 36.6665 94.4881C37.4218 93.6692 37.1055 93.1893 36.8386 93.6123C36.7367 92.9384 36.8035 92.2623 36.7777 91.6635C36.7225 91.386 36.6647 91.1097 36.5993 90.83C36.5361 90.592 36.6482 90.4594 36.827 90.3398C36.7198 89.7313 36.9062 89.9105 36.9827 89.2727C37.247 89.1183 36.5629 87.6722 36.6429 87.4921L36.6816 87.5961C36.7279 86.8582 37.2385 86.368 37.2617 85.647C37.4551 83.6431 37.2594 81.4546 37.3502 79.5979C37.0735 79.5797 37.4116 80.0076 37.045 80.0289C37.093 78.9338 37.4365 77.8302 37.4827 76.7248C37.557 76.5255 37.6962 76.2818 37.7843 76.191C37.8875 75.8378 37.6522 75.9824 37.6878 75.724L37.9378 75.6893C37.7332 75.3116 38.2149 75.1368 38.1113 74.7814C38.0107 74.7627 37.9974 74.6329 38.0054 74.5065C38.2701 74.5003 37.9867 74.1173 38.2287 74.1355L38.2087 74.132C38.2132 74.0559 38.1958 74.0017 38.2416 73.9082C38.1487 73.7637 37.4228 72.407 37.3102 72.2602L37.3538 72.1917C37.3458 71.9888 37.1492 71.9021 37.1016 72.0204L37.1162 71.7704L37.1345 71.7993L37.1496 71.5507C37.1727 71.5048 37.2964 71.4528 37.4125 71.5236C37.3199 71.3825 37.2701 71.2242 37.3173 71.0832C37.1536 71.4751 36.9227 71.9621 36.6549 72.3723C36.5637 72.2036 36.7047 71.8994 36.6758 71.7166C36.8511 71.4987 36.9996 71.0503 37.1202 70.7011C37.114 70.67 37.0623 70.6429 37.0116 70.6099C37.2407 70.5317 37.4685 70.4516 37.6967 70.3977C37.9698 70.3239 38.246 70.2852 38.512 70.1989C39.0471 70.0486 39.5777 69.8956 40.0199 69.5584C41.7907 68.9668 43.4854 67.9521 44.8275 66.5794C46.1739 65.2183 47.2152 63.5529 47.741 61.7777L47.6129 61.8173C47.6329 61.7426 47.6489 61.6687 47.6663 61.5944C48.237 61.3013 48.7885 60.9637 49.3063 60.5736L47.8945 59.756C47.9176 59.3971 47.9381 59.0305 48.0217 58.6529L48.289 57.4448L47.3327 58.2539C47.1783 58.3847 47.0084 58.515 46.8105 58.6213C46.7344 58.7401 46.6455 58.8589 46.5498 58.9772L45.0281 58.096C44.7523 59.0168 44.368 59.8886 43.8774 60.6942C43.7857 61.0011 43.6296 61.2836 43.4664 61.5669C43.4379 61.5799 43.409 61.5932 43.3801 61.6061C42.9624 61.7907 42.531 61.9722 41.8891 62.0825C42.0652 62.2128 41.7547 62.3231 41.4714 62.4028C41.1738 62.4886 40.9968 62.5527 41.2699 62.6647C41.7227 62.8582 41.9718 62.8578 42.1951 62.8449C42.2818 62.8409 42.3686 62.8364 42.4615 62.836C41.9006 63.3965 41.2761 63.8987 40.6195 64.3221C39.8883 64.8284 39.0591 65.2665 38.2024 65.5934C37.3439 65.919 36.4587 66.0943 35.6509 66.2228C35.2626 66.2775 34.993 66.0391 34.6928 65.879C33.2387 65.8447 31.4812 65.1686 30.0765 64.3034C30.1005 64.323 30.1218 64.3452 30.1352 64.3604C29.77 64.1144 29.4888 63.8457 29.2624 63.5313C29.1459 63.3783 29.0178 63.2408 28.9008 63.086C28.7865 62.9281 28.6606 62.7755 28.5093 62.6283C28.4515 62.6843 28.3585 62.5909 28.2821 62.5709C28.3221 62.4877 28.1371 62.2186 27.8012 61.8685C27.492 61.5007 27.0663 61.0154 26.7043 60.4638C25.9525 59.3785 25.4864 58.0347 25.5865 57.8612C25.5549 57.7713 25.5238 57.6771 25.4984 57.5796C25.4948 56.617 25.695 55.6425 26.0579 54.7986C26.4 53.9486 26.7847 53.2079 27.0766 52.5163C27.0743 52.0626 26.9676 51.9536 26.8911 51.6773C27.0788 51.6671 26.8599 51.4251 26.9983 51.2992C27.3719 51.4265 27.4867 51.4812 27.5254 51.4024C27.557 51.333 27.5054 51.1511 27.3755 51.0866C27.5441 50.6952 27.8359 50.5261 28.0681 50.2908C28.1784 50.1054 28.3163 49.927 28.4649 49.7121C28.5948 49.5124 28.6406 49.6801 28.6179 49.9808C28.935 49.6165 28.7767 50.0106 28.9813 50.0422C28.9154 50.2926 29.1325 50.0155 29.4546 49.6721C29.7633 49.3193 30.2005 48.9333 30.1965 49.004L30.088 49.1071C30.2593 49.0965 30.2255 49.3963 30.1334 49.6872L30.0626 49.9025C30.0101 49.987 29.9203 50.0893 29.8616 50.168C29.7739 50.2801 29.6845 50.3944 29.588 50.5176C29.1307 51.1199 29.0248 51.4099 28.9683 51.8236C28.9545 51.9401 28.9456 52.0602 28.9434 52.1799C28.939 52.2399 28.9443 52.2991 28.942 52.3578L28.9389 52.4445L28.9362 52.4872L28.9571 52.6678C29.0265 52.6642 29.0514 52.6255 29.0563 52.569C29.0586 52.541 29.0558 52.5072 29.051 52.473L29.047 52.445C29.0407 52.4067 29.0461 52.3662 29.2258 52.3142L29.2182 52.4049L29.212 52.4499L29.224 52.598L29.2631 53.198C29.2654 53.5877 29.3503 54.0405 29.4095 54.4765C29.4593 54.9204 29.5985 55.3438 29.7079 55.7802C29.8298 56.2122 30.018 56.6218 30.1999 57.0333C30.2875 57.3522 30.384 57.7623 30.3867 57.9402C30.6091 58.498 30.6749 58.1649 30.8964 58.5296L30.7283 58.7222C31.0001 58.9171 31.0828 59.1408 31.1584 59.3748C31.2389 59.603 31.3248 59.8307 31.5659 60.022C31.662 59.978 31.819 60.131 31.9586 60.2929C31.7687 60.498 32.4533 60.731 32.2633 60.8876L32.2816 60.8774C32.3754 60.969 32.4559 61.0184 32.5449 61.1599C32.6588 61.2199 33.2989 61.4628 33.923 61.6576C34.5559 61.8458 35.1912 61.9552 35.3144 61.9707C35.3384 62.0028 35.3633 62.0339 35.3896 62.0619C35.688 62.1998 35.8988 62.0828 35.7517 61.9587L36.1009 62.1438L36.0519 62.1407L36.4011 62.3235C36.4572 62.3755 36.4847 62.525 36.3362 62.5833C36.5813 62.5913 36.8388 62.6238 37.0341 62.7488C36.4905 62.3951 35.8932 61.8431 35.4839 61.3093C35.7384 61.3748 36.1 61.6794 36.362 61.7809C36.5777 62.102 37.1858 62.4655 37.6706 62.7666C37.7938 62.7835 37.9549 62.5211 38.1809 62.7141C38.2587 62.945 38.4789 62.7835 38.6662 62.9819C38.3877 63.0246 38.1475 62.9125 37.8935 62.8347C37.8704 63.0784 38.4851 63.1572 38.6782 63.2737C38.7894 63.2305 39.2929 63.3804 39.627 63.3653C39.5144 63.4997 39.6528 63.5402 39.8138 63.5908C39.8503 63.5793 39.8899 63.5664 39.9308 63.5539C39.8912 63.5677 39.8547 63.5801 39.8183 63.5926C39.9023 63.6193 39.9922 63.6487 40.0554 63.6958C40.2778 63.7372 40.4277 63.6518 40.3427 63.5655C40.3618 63.5117 40.3271 63.4743 40.2733 63.4427C40.3396 63.42 40.4068 63.3965 40.473 63.3711C40.9476 63.2069 41.3786 63.0482 41.271 63.0397C41.2047 63.0139 41.2011 62.977 41.2154 62.9378C41.2439 62.9227 41.2586 62.9013 41.2501 62.8675C41.2795 62.815 41.2995 62.7666 41.2092 62.7412L41.1282 62.7973C40.6896 62.7456 40.8734 62.4338 41.0459 62.1082C41.2332 61.759 41.3943 61.3979 40.9196 61.3351C41.3177 61.6545 40.7741 61.6362 40.3347 61.6478C40.3004 61.5495 40.1242 61.3809 39.8365 61.2542C39.5731 61.2377 39.6662 61.3391 39.6048 61.4067C39.4682 61.3178 39.2022 61.2195 39.2702 61.0705C39.0318 61.2124 38.9811 60.8752 38.7334 60.8805C38.5038 60.9112 38.7272 60.9628 38.5555 61.0122C38.2401 60.9286 37.8264 60.7288 37.5977 60.6101C37.5542 60.4366 37.3842 60.0954 37.6685 59.9557C38.0915 60.1439 37.3616 60.2413 37.8397 60.3637C37.7597 59.9744 38.2783 60.4255 38.4376 60.212C38.3402 60.014 38.0608 59.9095 37.8064 59.8619L37.8379 59.921C37.6062 59.9019 37.1689 59.7502 37.0306 59.4874C37.1347 59.4059 37.0818 59.2819 37.2392 59.325L36.9795 59.1756C36.9274 59.1924 36.8731 59.2089 36.9394 59.2708C36.7664 59.2908 36.6721 59.1605 36.6134 59.0461C36.6374 58.9745 36.2113 58.9114 35.8154 58.7762C35.4151 58.6512 35.0019 58.5181 35.0539 58.4959C34.973 58.4248 34.9489 58.3483 34.9204 58.2811C35.0908 58.3932 35.3466 58.5382 35.6152 58.6427C36.0738 58.8651 36.5365 58.9728 36.4008 58.9199C36.351 58.8255 35.7629 58.6134 35.1842 58.3256C34.9093 58.1681 34.6206 58.0138 34.4231 57.8634C34.2318 57.7064 34.1104 57.5779 34.1313 57.5121C34.0116 57.3942 33.8546 57.2612 33.7835 57.3719C33.65 57.1117 34.0197 57.2856 33.9881 57.0517C33.9698 57.0605 33.9485 57.105 33.9138 57.0512L33.9267 56.7994C33.7256 56.6851 33.5606 56.4729 33.4285 56.2403C33.2955 56.0068 33.1558 55.7795 32.9223 55.6478C33.1122 55.695 33.4 55.7021 33.65 55.8729L33.6185 55.9503C33.6727 55.9636 33.8275 56.1358 33.9294 56.0588C33.8658 55.7888 33.7346 55.6175 33.4815 55.4436C33.4841 55.384 33.4841 55.3168 33.5002 55.2639C33.4859 55.2728 33.4757 55.283 33.4584 55.291C33.4895 55.1731 33.5055 55.1763 33.5633 55.182C33.5731 55.1816 33.5847 55.1811 33.5967 55.1851C33.7266 55.025 33.5704 54.8347 33.3703 54.6087C33.1714 54.3849 32.9797 54.0976 32.9833 53.8498C32.8868 53.736 32.9143 53.8592 32.7947 53.7146C32.817 53.2071 32.8321 52.8561 32.8548 52.3388C32.6724 52.2022 32.6061 52.1956 32.4709 52.4264L32.4642 52.0221C32.5838 52.0964 32.6617 52.0826 32.7195 52.0279C32.7501 51.9954 32.7684 51.9736 32.7973 51.9087C32.8258 51.8446 32.8534 51.7713 32.881 51.6974C32.9904 51.4056 33.1083 51.0795 33.312 51.3526C33.4196 51.136 33.4623 50.713 33.4063 50.3669C33.3543 50.3696 33.268 50.3847 33.2293 50.3251C33.1942 50.2633 33.1866 50.1405 33.2573 49.883C33.3756 49.5271 33.6661 49.198 33.8071 48.9973C33.9788 48.7727 34.13 48.5748 34.5628 48.0094C34.8502 47.7198 34.9076 47.6972 34.8831 47.7621C34.8858 47.8003 34.9178 47.8164 35.021 47.7345C35.0419 47.7003 35.0628 47.6669 35.0824 47.6345C35.1367 47.5686 35.1891 47.5046 35.2399 47.4427C35.3448 47.3164 35.4432 47.1976 35.5361 47.0851C35.7354 46.8494 35.9102 46.6425 36.0717 46.4522C36.4093 46.0594 36.7176 45.7142 37.0254 45.3784C37.7998 44.5488 38.5596 43.7339 39.41 42.8229C39.3486 42.6912 39.1547 42.6143 38.6792 42.6703C38.4399 42.7112 38.2312 42.7375 37.9724 42.7749C37.7318 42.8092 37.4257 42.8576 37.2696 42.8959C36.8906 42.9844 36.5325 43.1254 36.2643 43.4159C35.9307 43.2904 36.2612 42.8963 36.6864 42.4502C36.5623 42.4226 36.5339 42.3808 36.4538 42.3478C36.9738 42.4048 37.7126 42.5018 39.8709 42.4252C38.9719 43.4425 38.0711 44.4616 37.1695 45.482L36.0436 46.7644L35.7638 47.0834L35.6242 47.2426C35.581 47.2924 35.5766 47.304 35.5508 47.3365L35.3039 47.6665L34.3284 48.9739C34.2746 49.0383 34.2888 49.0504 34.2692 49.0886L34.2328 49.1856L34.1607 49.3791L34.0175 49.7638C34.1469 49.4952 34.2595 49.2354 34.4156 48.9365C34.7928 48.4637 35.1722 47.9881 35.553 47.5109L35.8519 47.1386L35.9275 47.0447C35.9458 47.0203 36.0245 46.9362 36.0703 46.8846L36.3937 46.5269L37.7202 45.0622C38.8131 43.8594 39.9082 42.6544 41.0038 41.4489C40.8227 41.424 40.635 41.4022 40.4406 41.3835C40.2605 41.3622 40.0047 41.356 39.9073 41.3239C39.6439 41.2719 39.3611 41.2305 39.0608 41.2003C38.866 41.1513 38.673 41.11 38.4585 41.0792C38.3353 41.0668 38.2855 41.0437 38.2099 41.0267C38.1378 41.0094 38.0631 40.9938 37.9866 40.9809C37.4328 40.8662 37.1254 40.8279 36.8932 40.8697C36.6602 40.9115 36.5436 41.0258 36.412 41.2042C36.3452 41.2932 36.2954 41.3964 36.2318 41.5138C36.1993 41.5725 36.1771 41.6344 36.1442 41.6998L36.0948 41.8003L36.0819 41.8261L36.0067 41.8719L35.8541 41.9663C35.9893 41.7029 35.9106 41.5094 35.6913 41.3756C35.4693 41.2412 35.1117 41.1678 34.7665 41.1322C34.0366 41.0632 33.2648 41.1482 33.1754 41.2901C32.441 41.5921 31.7413 41.9636 31.0661 42.2772C28.9292 43.3928 26.9493 44.7259 25.0508 46.6925C24.9334 46.8157 24.8066 46.9229 24.695 47.059L24.3645 47.4785C24.1407 47.7578 23.9156 48.0385 23.6901 48.3201C23.4851 48.6252 23.2911 48.9468 23.086 49.2626C22.8926 49.5696 22.6412 49.9343 22.5393 50.1652C22.2858 50.6478 22.0202 51.1331 21.8196 51.6522C21.716 51.9097 21.5932 52.1642 21.5051 52.4302L21.2445 53.2353C21.14 53.5338 21.0678 53.9074 20.9847 54.3331C20.9451 54.5462 20.8961 54.7717 20.8619 55.0092C20.8383 55.2481 20.8139 55.4976 20.788 55.7552C20.6835 56.7889 20.7218 57.9735 20.8761 59.1567C21.1639 61.5422 22.2168 63.777 22.8507 64.9566C23.041 65.296 23.2532 65.6212 23.4676 65.9544C23.1492 65.3765 23.1305 65.3894 22.8444 64.8019C23.9618 66.0149 25.117 66.9085 26.2606 67.6674C26.1707 67.404 26.2219 67.275 25.9395 66.7648L26.3807 67.287C26.7268 67.3595 27.2041 67.5651 27.6418 67.8199C28.0799 68.0752 28.5555 68.2781 28.8668 68.3822C28.6435 68.4876 29.0599 68.7999 29.4678 69.0134L29.3664 68.8132C30.1137 69.2464 30.9957 69.5765 31.8751 69.8007C32.32 69.8927 32.7519 70.0182 33.1793 70.068C33.6046 70.1262 34.0129 70.1823 34.3928 70.2344C34.6054 70.2459 34.7594 70.3313 34.8527 70.4069C34.9203 70.4038 34.9875 70.3981 35.0552 70.3945C35.1139 70.4733 35.1196 70.3522 35.1993 70.4537C35.1797 70.6983 35.153 71.0413 35.1165 71.2361C34.9689 71.3113 34.7068 71.5407 34.4774 71.374C34.5089 71.003 34.851 71.5154 34.8016 71.1293C34.4636 71.2957 34.7091 70.7877 34.4533 70.7174C34.3008 70.8406 34.2994 71.0897 34.3417 71.2983L34.3866 71.2565C34.4311 71.4403 34.5013 71.8077 34.3208 72.0065C34.2024 71.9598 34.113 72.0465 34.0841 71.9113L34.0619 72.1644C34.0992 72.1964 34.1379 72.2294 34.1651 72.1568C34.2571 72.2761 34.2055 72.3957 34.1357 72.4873C34.0102 72.5149 34.6632 73.8329 34.5845 73.792C34.5863 73.8787 34.5449 73.9339 34.5147 73.9872C34.4222 73.534 34.1068 72.5069 34.1384 72.6946C34.0005 72.8503 34.766 74.7599 34.5281 74.8733C34.5374 75.0085 34.5641 75.1714 34.6913 75.1397C34.6295 75.3679 34.4485 75.0712 34.3292 75.2341C34.3492 75.2376 34.3928 75.2207 34.3884 75.2728L34.2273 75.4289C34.4248 75.7834 34.1682 76.303 34.4293 76.6739C34.2914 76.5663 34.0494 76.444 33.9249 76.2051L33.9916 76.1633C33.9524 76.1295 33.9084 75.9329 33.7812 75.9382C33.6967 76.1651 33.7198 76.359 33.8448 76.5979C33.8105 76.642 33.7763 76.6935 33.7411 76.7278C33.758 76.7269 33.7718 76.7234 33.7909 76.7243C33.7117 76.8021 33.6988 76.7941 33.6494 76.7656C33.6401 76.7621 33.6298 76.7572 33.6205 76.7492C33.2483 76.8915 33.8568 77.6397 33.6637 78.0538C33.7166 78.1757 33.7273 78.0654 33.7985 78.2171C33.6508 78.6405 33.5369 78.9323 33.4506 79.3749C33.6112 79.5163 33.6753 79.5275 33.843 79.3567L33.7905 79.6907C33.363 79.3869 33.3825 80.3148 32.9555 79.9798C32.8577 80.0777 32.8377 80.2779 32.9071 80.4651C33.0147 80.4838 33.1873 80.5132 33.1869 80.7489C33.0441 81.0767 33.0961 80.9984 32.9587 81.2698C32.819 81.3338 32.7638 81.2347 32.6518 81.2458C32.831 81.6643 32.3475 81.6109 32.3742 82.006C32.4156 82.2533 32.432 82.7417 32.6776 82.7537C32.6664 83.0868 32.4867 83.0868 32.2875 83.0539L32.2599 83.3248C32.2412 82.4485 32.3279 81.5273 32.4275 80.6189C31.593 82.5944 30.8551 84.9274 32.6304 86.4545C31.6861 86.6204 31.2475 88.5371 31.4801 88.5763C31.6527 88.9744 31.7946 89.3774 31.9107 89.7848C32.2505 90.9801 32.3577 92.2246 32.3453 93.5031C32.1344 93.29 31.9213 93.0867 31.7016 92.9079C31.2785 92.7736 30.8315 92.5895 30.4419 92.5147C30.299 92.1748 30.0446 92.3688 29.7728 92.073C29.5068 90.8373 28.8521 90.6848 29.07 91.2301C28.3752 90.7577 27.7889 90.1568 27.2142 89.6888C26.9189 89.5042 26.624 89.3231 26.3202 89.1439C26.0573 88.998 26.007 88.8054 26.0133 88.5732C25.3758 88.1582 25.6654 88.164 25.1214 87.5866C25.1512 87.2624 23.3537 86.5991 23.2385 86.3919L23.3613 86.4475C22.7042 85.8118 22.5837 85.0276 21.9267 84.4231C20.1871 82.6451 18.019 81.01 16.3487 79.4296C16.1494 79.6226 16.7704 79.7169 16.5497 80.01C15.5609 79.0821 14.7585 77.9243 13.7594 76.9893C13.6224 76.7709 13.4872 76.468 13.4605 76.3274C13.1994 75.9622 13.1794 76.2571 12.9619 76.0196L13.094 75.803C12.6073 75.6495 12.7617 75.1447 12.3618 74.9329C12.2782 74.9934 12.1483 74.8973 12.0358 74.7888C12.2039 74.5842 11.6612 74.4855 11.8374 74.3187L11.8209 74.3307C11.7528 74.2653 11.691 74.2342 11.6341 74.1239C11.4383 74.0763 9.69644 73.518 9.48561 73.4829L9.45044 73.3944C9.25607 73.2351 9.04612 73.3126 9.12528 73.4447L8.90202 73.2298L8.94115 73.2396L8.71919 73.0256C8.6916 72.9709 8.72452 72.8357 8.86732 72.8054C8.67514 72.7601 8.49456 72.6688 8.3945 72.5185C8.65205 72.9611 8.95364 73.5318 9.15961 74.0669C8.94256 73.9984 8.75169 73.6444 8.5627 73.5171C8.4746 73.2075 8.15477 72.7303 7.90924 72.3557C7.82784 72.3045 7.58409 72.4842 7.50759 72.2445C7.56319 72.0217 7.3199 72.0902 7.28207 71.8611C7.50848 71.9144 7.62772 72.0839 7.77762 72.2289C7.9093 72.0243 7.50315 71.7721 7.42399 71.6124C7.31588 71.6186 7.06461 71.2948 6.83062 71.1787C6.98456 71.1124 6.91292 71.0275 6.83642 70.923C6.81908 70.9203 6.79948 70.9163 6.78083 70.9127C6.79954 70.9159 6.81688 70.9181 6.83512 70.9207C6.82091 70.9016 6.80753 70.8811 6.79421 70.8607C6.79551 70.8562 6.79645 70.8518 6.79776 70.8474C7.02772 70.0156 7.35068 69.2443 7.62202 68.3929L7.61622 68.3959ZM40.7092 62.5016C40.823 62.5127 40.7933 62.5754 40.6905 62.6599C40.6701 62.5972 40.6705 62.5367 40.7092 62.5016ZM40.538 63.2337C40.5451 63.1407 40.477 63.1216 40.4788 63.0811C40.5486 63.0451 40.6407 63.0211 40.7373 63.0011C40.7661 62.9984 40.7951 62.9944 40.8235 62.9904L40.8773 63.0113C40.9414 62.9922 41.0121 62.9837 41.0753 62.9748C41.1224 62.9824 41.1647 63.0002 41.1989 63.0367C41.1522 63.0722 41.0495 63.0442 40.977 63.0367C41.1362 63.0505 40.7106 63.2506 40.2559 63.4344C40.1843 63.3983 40.082 63.3716 39.9868 63.3427C39.8458 63.292 39.7261 63.2426 39.7528 63.1732C39.727 63.1844 39.707 63.1937 39.6923 63.2013L39.5669 63.1297C39.6527 63.1034 39.7977 63.0861 39.9445 63.0883C39.9081 63.1047 39.8747 63.1199 39.8431 63.1336C39.9503 63.2448 40.328 63.2368 40.538 63.2337ZM6.67763 71.292C6.68077 71.292 6.68166 71.292 6.68432 71.2916L6.72879 71.4001C6.70653 71.3969 6.68166 71.3903 6.65449 71.3818C6.66206 71.3516 6.67006 71.3223 6.67763 71.292ZM4.6017 87.9482C4.63373 87.3094 4.66618 86.6733 4.69779 86.0408C4.72715 85.4078 4.75161 84.7779 4.83568 84.157C4.97043 82.9115 5.10347 81.6834 5.23425 80.4788C5.29831 79.8756 5.36148 79.2782 5.42418 78.688C5.45532 78.3926 5.48647 78.0986 5.51761 77.8063C5.56568 77.5167 5.61323 77.2285 5.66083 76.942C5.84496 75.8144 6.0247 74.7157 6.19907 73.65C6.40812 73.7176 6.24264 73.5797 6.4099 73.6059C6.62476 73.8203 6.92677 74.1197 7.08425 74.3056C7.05713 74.4782 7.09846 74.8625 6.79201 74.899C6.46727 74.5729 7.16968 74.7326 6.77733 74.4555C6.70972 74.8452 6.39835 74.2468 6.16437 74.3825C6.17858 74.5978 6.4099 74.8015 6.63186 74.9394L6.62251 74.8718C6.82268 74.9879 7.2119 75.2343 7.27816 75.5324C7.15672 75.5835 7.17851 75.7214 7.03352 75.6334L7.25459 75.8562C7.3093 75.854 7.36536 75.8522 7.3151 75.7721C7.48679 75.8001 7.56418 75.9358 7.60331 76.0635C7.54683 76.1805 9.20418 76.7623 9.11436 76.7881C9.19619 76.8575 9.22069 76.9336 9.25048 77.0003C8.76742 76.7005 7.60243 76.1013 7.79858 76.2307C7.85328 76.4612 10.1361 77.4407 10.0849 77.712C10.217 77.8147 10.3861 77.9278 10.4403 77.8059C10.6125 78.0381 10.2171 77.9331 10.2895 78.155C10.3065 78.143 10.3189 78.0963 10.3643 78.1421L10.4039 78.3903C10.8643 78.53 11.1792 79.147 11.6965 79.2524C11.5057 79.2688 11.2326 79.3511 10.9274 79.2506L10.9328 79.1661C10.8754 79.1679 10.6632 79.0411 10.5849 79.1412C10.7406 79.3898 10.9368 79.5304 11.2415 79.6305C11.2601 79.6923 11.2855 79.7599 11.2944 79.8146C11.3042 79.8013 11.3104 79.7879 11.3237 79.7741C11.3442 79.8973 11.3282 79.9 11.2686 79.9142C11.2592 79.9183 11.2481 79.9222 11.2343 79.9227C11.1218 80.319 12.2196 80.4703 12.4785 80.9529C12.6266 81.0125 12.531 80.9146 12.7196 80.9845C13.0167 81.4404 13.2138 81.7638 13.5692 82.189C13.8067 82.1832 13.8592 82.144 13.8103 81.8789L14.0874 82.1908C13.5225 82.2651 14.4006 83.0061 13.8072 83.0551C13.8339 83.2085 14.0074 83.3864 14.2271 83.487C14.3156 83.4211 14.4566 83.3153 14.6759 83.5074C14.8876 83.882 14.849 83.7792 15.0113 84.1035C14.9793 84.261 14.8499 84.2214 14.7872 84.3152C15.2956 84.5212 14.9273 84.8418 15.3129 85.1434C15.5709 85.3138 16.0366 85.699 16.2092 85.5242C16.5126 85.804 16.3942 85.9392 16.2324 86.0624L16.4664 86.304C15.6377 85.6043 14.8361 84.7885 14.0559 83.9736C15.3472 86.2105 17.0353 88.6664 19.6268 88.5739C19.1597 89.4194 20.6569 91.3112 20.8465 91.168C21.3309 91.3624 21.8001 91.5839 22.2561 91.8281C25.1385 93.3756 27.5361 95.896 29.9941 98.5297C30.144 98.6836 30.3215 98.8651 30.5212 99.0698L30.5977 99.1467L30.7054 99.2508C30.8045 99.3442 30.9059 99.4394 31.01 99.5372C31.2196 99.7334 31.438 99.9385 31.6648 100.151C31.6995 100.183 31.7373 100.218 31.7724 100.251C31.635 102.165 31.4797 104.552 31.2933 105.674C31.2586 105.913 31.2271 106.15 31.2004 106.391C31.2573 106.125 31.3138 105.859 31.3699 105.593C31.6221 106.597 31.8672 107.506 32.0291 108.387C32.1647 108.232 32.296 108.205 32.4828 107.837L32.3925 108.286C32.7844 108.696 32.767 109.64 32.9325 110.084C32.727 109.989 32.6861 110.338 32.6554 110.647L32.791 110.524C32.7056 111.695 32.8724 113.055 32.8471 114.101C32.8471 114.247 32.7706 114.357 32.6998 114.423L32.8586 115.426C32.5833 115.349 32.6166 116.258 32.4445 115.779C32.7696 116.531 32.5704 117.293 32.9071 118.009C32.9098 118.187 32.9204 118.372 32.9249 118.551C32.5357 118.139 32.1429 117.759 31.7363 117.439C31.2866 117.293 30.8084 117.094 30.397 117.009C30.2275 116.656 29.9735 116.851 29.6719 116.541C29.3214 115.259 28.6275 115.089 28.8877 115.657C28.1338 115.156 27.4861 114.524 26.8576 114.03C26.5364 113.838 26.2166 113.646 25.8915 113.451C25.6081 113.295 25.5445 113.096 25.5374 112.855C24.8465 112.415 25.1499 112.426 24.5472 111.82C24.5596 111.485 22.642 110.767 22.5095 110.551L22.6407 110.611C21.917 109.942 21.7444 109.13 21.0225 108.493C19.1 106.624 16.738 104.895 14.8996 103.231C14.703 103.427 15.3573 103.536 15.1438 103.835C14.0563 102.858 13.1492 101.647 12.0501 100.663C11.8945 100.435 11.7352 100.119 11.6988 99.9736C11.4043 99.5915 11.4007 99.8957 11.1596 99.6467L11.2846 99.4256C10.7669 99.2579 10.8985 98.7392 10.4688 98.5128C10.3852 98.5737 10.2438 98.4723 10.1196 98.358C10.2837 98.1498 9.71039 98.0377 9.88475 97.8682L9.86829 97.8803C9.79311 97.8113 9.72685 97.778 9.66101 97.6632C9.45326 97.6103 7.60065 97.0013 7.37822 96.9613L7.33642 96.8692C7.12381 96.7011 6.90895 96.7771 6.99924 96.9154L6.75324 96.6895L6.79462 96.7001L6.54998 96.475C6.51795 96.4176 6.54418 96.2789 6.69143 96.2504C6.4877 96.2001 6.29374 96.1023 6.18036 95.9452C6.47573 96.4074 6.82446 97.0021 7.07088 97.559C6.84003 97.4838 6.62026 97.1146 6.41476 96.9799C6.30446 96.6587 5.94236 96.1596 5.66344 95.7677C5.57534 95.7135 5.33118 95.8945 5.23733 95.6454C5.28227 95.4164 5.03183 95.4822 4.9789 95.2451C5.21868 95.3047 5.35302 95.4817 5.51844 95.6343C5.6439 95.4252 5.20441 95.1575 5.11235 94.9911C4.9998 94.9955 4.71822 94.6562 4.46647 94.5321C4.62349 94.4662 4.54344 94.3772 4.45759 94.2678C4.44735 94.2661 4.4358 94.2634 4.42556 94.2616V94.2602C4.4358 94.262 4.44557 94.2638 4.45581 94.2656C4.44557 94.2527 4.43533 94.2393 4.42556 94.226C4.42023 93.4182 4.41532 92.61 4.40999 91.8049C4.47494 90.5118 4.53988 89.224 4.60394 87.9474L4.6017 87.9482Z" fill="var(--fill-0, #F8F6F2)"/>
</svg>
