<svg width="100%" height="100%" viewBox="0 0 1440 900" preserveAspectRatio="xMidYMid slice" xmlns="http://www.w3.org/2000/svg">
  <defs>
    <path id="frond-shape" d="M0,0 C50,-20 120,10 180,80 C150,70 140,85 130,100 C110,90 100,105 90,120 C70,100 50,80 0,0 Z" />
  </defs>

  <g fill="#0b1118" fill-opacity="1">
    <path d="M-50,0 
             C50,100 150,200 350,300 
             L340,320 L360,310 L350,340 L380,320 
             C400,350 420,380 440,400
             L420,410 L460,420 L440,450
             C300,400 200,300 0,150 
             L0,0 Z" 
             transform="scale(1.5)" />
             
    <path d="M1490,0 
             C1390,100 1290,200 1090,300 
             L1100,320 L1080,310 L1090,340 L1060,320 
             C1040,350 1020,380 1000,400
             L1020,410 L980,420 L1000,450
             C1140,400 1240,300 1440,150 
             L1440,0 Z" 
             transform="scale(1.5) translate(-100, 0)" />

    <g transform="translate(100, 900) scale(1.2)">
        <path d="M0,0 Q20,-200 80,-400 L60,-400 Q10,-200 -20,0 Z" />
        <path d="M70,-400 Q-50,-450 -150,-350 L-140,-330 Q-50,-420 70,-400 Z" />
        <path d="M70,-400 Q150,-550 250,-500 L240,-480 Q150,-520 70,-400 Z" />
        <path d="M70,-400 Q200,-400 300,-300 L290,-280 Q200,-370 70,-400 Z" />
        <path d="M70,-400 Q-20,-500 -50,-600 L-30,-600 Q0,-500 70,-400 Z" />
    </g>

    <g transform="translate(1200, 900) scale(1.4)">
        <path d="M0,0 Q-10,-150 -40,-350 L-20,-350 Q10,-150 30,0 Z" />
        <path d="M-30,-350 Q-150,-400 -250,-300 L-240,-280 Q-150,-370 -30,-350 Z" />
        <path d="M-30,-350 Q50,-500 150,-450 L140,-430 Q50,-470 -30,-350 Z" />
        <path d="M-30,-350 Q100,-350 200,-250 L190,-230 Q100,-320 -30,-350 Z" />
        <path d="M-30,-350 Q-100,-450 -120,-550 L-100,-550 Q-80,-450 -30,-350 Z" />
    </g>
    
    <path d="M600,900 C650,800 700,750 720,650 L730,660 C710,760 660,810 620,900 Z" opacity="0.5"/>
    <path d="M840,900 C790,800 740,750 720,650 L710,660 C730,760 780,810 820,900 Z" opacity="0.5"/>
  </g>
</svg>
